<?xml version="1.0" encoding="UTF-8"?>
<svg viewBox="0 0 573.2337 797.97772" xmlns="http://www.w3.org/2000/svg">
 <g transform="translate(-85.195 -99.862)">
  <path fill="#808080" d="m613.88 897.17c-1.2273-0.56232-4.3753-5.6375-7.8314-12.626-6.1378-12.411-13.875-25.543-21.298-36.15-4.445-6.3515-4.5162-6.5785-4.0774-13 0.52524-7.6855-1.0095-13.732-4.7203-18.597-1.4564-1.9094-3.5614-5.5367-4.6779-8.0607l-2.03-4.5892 3.0457-3.1442c2.4637-2.5434 3.457-5.0147 5.1976-12.933 1.4411-6.5554 1.9151-11.015 1.435-13.5-0.62401-3.2306-0.82087-3.4378-1.5203-1.6003-0.44192 1.161-1.5162 2.3844-2.3872 2.7186-1.1525 0.44226-1.6056 2.0456-1.6642 5.8891-0.0443 2.9048-0.60676 7.3064-1.25 9.7814-1.0178 3.9161-1.8184 4.8551-6.1695 7.2367l-5 2.7367-2.1439-2.4192c-1.8704-2.1105-2.2328-4.1185-2.84-15.737-0.71362-13.654-0.19111-17.182 2.9278-19.771 1.408-1.1685 2.1625-1.1279 5.1042 0.27491 1.8986 0.90537 3.4805 2.2159 3.5154 2.9123s0.50806 0.15176 1.0516-1.2103 0.72981-3.5059 0.41404-4.764c-0.5514-2.197-0.6918-2.2267-3.5463-0.75053l-2.9722 1.537 0.24477-4.773c0.13462-2.6251 0.65322-5.0684 1.1524-5.4294 1.2336-0.89219-7.1492-35.384-8.9661-36.892-0.7894-0.65514-2.0664-3.3164-2.8378-5.9138s-2.3479-6.5758-3.5034-8.8408-2.622-7.6215-3.2588-11.903c-1.2348-8.302-5.0482-18.64-9.5722-25.949-8.7845-14.192-15.514-23.565-21.269-29.623l-6.5-6.8418-8.5 5.8177c-12.278 8.4033-16 11.568-16 13.602-2e-5 0.98981-0.65552 3.0672-1.4567 4.6165-1.3238 2.56-2.1021 2.8805-8.5338 3.5142-4.2564 0.41942-9.2486 0.24656-12.525-0.43368-4.6887-0.97337-5.8512-0.893-8.3388 0.57649-1.779 1.0509-3.8357 1.4703-5.3482 1.0907-1.3517-0.33925-6.4793-4.7899-11.395-9.8904-9.9782-10.354-16.402-21.004-16.402-27.192 0-4.4624-6.8682-18.543-11.626-23.834-3.8301-4.2598-3.7175-3.5624-2.3433-14.522 0.82703-6.5957 0.71639-10.036-0.55926-17.388-0.87465-5.0411-2.2787-10.497-3.1202-12.124-1.1689-2.2604-1.3689-4.5618-0.84755-9.753 0.62714-6.2448 0.91218-6.8897 3.5231-7.9712 1.5624-0.64718 4.1353-0.89235 5.7176-0.54483 2.3416 0.51429 3.1074 0.20103 4.1161-1.6837 0.87374-1.6326 0.94826-3.0448 0.25265-4.7879l-0.98663-2.4723-0.0634 2.857c-0.048 2.1627-0.44194 2.7117-1.6212 2.2592-0.85681-0.3288-3.3139 0.29806-5.4602 1.393s-4.1324 1.9908-4.4136 1.9908-0.93353-1.4625-1.4496-3.25c-0.84039-2.9105-0.94782-2.593-1.0286 3.0398-0.0851 5.9364-2.9176 14.215-4.8605 14.207-2.8835-0.0126-19.273-3.406-22.046-4.5644-8.1861-3.4204-8.047-1.3533 0.37883 5.6291 7.975 6.6088 13.881 9.8331 18.122 9.8933 5.0004 0.071 7.8959 1.6188 9.2802 4.9611 0.70262 1.6963 1.5849 3.0841 1.9607 3.0841 1.3602 0 1.1301 8.2958-0.3735 13.468-2.367 8.142-3.9106 9.4762-11.802 10.201-7.6538 0.70304-7.7142 0.81047-4.7245 8.3956 1.7629 4.4725 1.8892 5.8909 0.97378 10.939-0.57847 3.1901-2.1295 8.9689-3.4468 12.842l-2.395 7.0417 3.4721 3.6815c1.9097 2.0248 5.2267 7.1127 7.3713 11.306l3.8992 7.6249 0.05-4.5685c0.0602-5.4996 2.6492-14.762 4.8023-17.182 1.4514-1.6306 1.3148-1.75-2.0022-1.75-3.5507 0-3.5585 0.01-3.0451 3.8372 0.45516 3.3935-1.6855 10.163-3.2138 10.163-0.25161 0-1.5692-2.1938-2.9279-4.8752s-3.2057-5.1574-4.1044-5.5022c-1.6651-0.63898-1.6559-1.1852 0.20917-12.323 0.498-2.974 0.93521-3.2841 6.1839-4.3856 8.7588-1.8382 22.148 1.471 22.148 5.4741 0 0.73815-0.89354 2.478-1.9856 3.8664-1.6501 2.0978-1.7557 2.7152-0.62464 3.6539 1.2948 1.0746 2.7976 5.7233 4.1505 12.839 0.74919 3.9403 7.6823 13.689 15.325 21.548l5.6352 5.7949-0.22711 11.705c-0.17799 9.1734-0.85973 14.14-3.1519 22.965-3.4729 13.369-6.6818 18.855-15.622 26.704-7.2162 6.3355-9.8788 6.6202-13.56 1.4498-1.999-2.8073-2.007-3.0586-0.40464-12.639 1.1044-6.6031 2.5715-11.456 4.5217-14.958 3.634-6.5253 4.7537-17.357 3.0198-29.215-1.452-9.9304-2.9545-13.712-6.3244-15.917-1.4163-0.92669-4.0008-2.7538-5.7433-4.0602l-3.1682-2.3753 2.479 4.892c3.7309 7.3627 4.8804 12.49 3.6144 16.122-0.88374 2.5351-0.69969 3.7732 1.0792 7.2601 2.6726 5.2388 2.0876 11.144-1.9497 19.681-2.275 4.8104-3.5104 6.1937-6.8945 7.7197-2.3125 1.0428-4.3986 2.7849-4.7508 3.9674-0.34537 1.1595-2.2198 4.4555-4.1654 7.3245l-3.5374 5.2163-2.9205-2.0796c-2.0369-1.4504-2.7098-2.5748-2.2242-3.7163 0.38295-0.90018 0.86608-5.4617 1.0736-10.137 0.29422-6.6274 0.14375-7.9552-0.683-6.0271-0.5832 1.3601-0.8077 4.0601-0.49889 6 0.67526 4.2419-1.5029 12.862-4.2267 16.727-3.4105 4.8398-6.3956 11.437-5.8355 12.897 0.29612 0.77168 0.16004 1.403-0.30241 1.403s-1.1194 1.6875-1.4598 3.75c-1.4962 9.0634-2.5217 10.968-7.6929 14.286-6.3953 4.1039-10.899 3.7645-20.376-1.5353l-6.7631-3.7822 0.67824-5.6093c0.37303-3.0851 1.297-6.5755 2.0532-7.7564 1.2687-1.9811 1.1447-2.2425-1.6043-3.3811-1.6386-0.67874-3.405-1.9626-3.9252-2.8529-0.76635-1.3116-0.95166-1.1172-0.9763 1.0242-0.0172 1.497-0.73579 2.9137-1.6572 3.2672-4.1722 1.601-8.7252-7.5647-7.7747-15.652 0.51251-4.3607 0.13753-6.7482-1.9833-12.628-1.4384-3.9876-2.6153-8.5823-2.6153-10.21 0-4.748 4.6145-14.779 8.9751-19.509 2.2137-2.4016 4.0117-5.164 3.9956-6.1388-0.0452-2.7315-4.7006 2.8472-10.793 12.933-5.7081 9.45-6.0635 11.497-3.6978 21.294 1.9022 7.878 1.8735 13.309-0.11932 22.583l-1.6393 7.6287 2.5354 5.538 2.5354 5.538-4.1461 3.9988c-2.2803 2.1994-5.2711 4.3308-6.6461 4.7366-4.8901 1.4431-14.475 6.7693-20.805 11.561-7.7281 5.8503-9.068 5.545-12.181-2.7759-2.3845-6.3731-2.1793-8.3122 1.4449-13.653 2.0824-3.0685 2.7631-5.951 3.9975-16.927 1.5435-13.724 3.399-39.929 2.8767-40.628-0.16421-0.21963-1.7268 2.6527-3.4724 6.383l-3.1738 6.7823 2.3049 4.2193 2.3049 4.2193-2.2428 9.077c-1.3694 5.5422-2.8287 9.3018-3.7474 9.6543-1.2738 0.48879-1.4089-0.30562-0.8811-5.1792 0.39441-3.6419 0.21244-6.3076-0.49538-7.2566-0.93034-1.2473-1.0139-1.179-0.4962 0.40546 0.39556 1.2106-0.1266 2.7029-1.4319 4.0924l-2.0545 2.1869 2.1341 5.5769 2.1342 5.5769-3.1748 10.831c-3.4521 11.777-8.8906 21.331-12.142 21.331-2.4842 0-5.9087-6.8395-5.8631-11.71 0.0195-2.0844 0.67854-4.9148 1.4646-6.2898 1.897-3.3184 1.8486-6.0883-0.19554-11.197l-1.6955-4.2376-3.278 12.967c-2.0138 7.9666-3.2882 15.499-3.3045 19.532-0.0264 6.5258-0.0476 6.5748-3.5749 8.2569-2.0841 0.99386-4.5585 1.4386-5.9961 1.0778-2.3022-0.57782-2.4133-0.92001-1.8687-5.7569 0.71277-6.3308-1.5669-12.643-4.5663-12.643-1.074 0-3.5488-0.76113-5.4996-1.6914-4.7066-2.2444-6.0702-6.8596-5.7297-19.392 0.21293-7.8358-0.10496-10.388-1.7434-14-2.5981-5.7266-2.5485-7.2233 0.351-10.594l2.3988-2.7888-2.5294-5.017c-1.3912-2.7594-3.8524-6.6968-5.4693-8.7499-2.1411-2.7187-3.0938-5.2248-3.5066-9.2242-0.31171-3.0202-0.91303-5.2773-1.3362-5.0157s-0.53136-0.43506-0.24031-1.5481c0.58817-2.2491-4.7375-53.187-5.6436-53.979-0.31463-0.275-0.65477-3.3758-0.75587-6.8907-0.16843-5.8559-0.58236-6.9687-4.9466-13.298l-4.7628-6.9077 1.1832-8.1176c1.0039-6.8878 1.619-8.5091 4.0603-10.702 3.3605-3.0181 9.1497-10.467 9.1497-11.773 0-1.4722-17.183-5.2829-19.128-4.242-2.0958 1.1217-9.828-1.3974-11.622-3.7862-2.1961-2.9249-1.3634-7.0967 3.25-16.283 2.475-4.928 4.5-10.094 4.5-11.48 0-2.6312-0.92654-3.1934-2.5641-1.5558-1.2612 1.2612-21.478-15.89-23.199-19.681-1.5691-3.4557-0.78006-17.993 1.4695-27.076 1.6491-6.6582 3.1945-8.1769 9.794-9.6244 5.6859-1.2472 7.3325-3.4565 8.9653-12.029l1.5135-7.9465-3.34-2.7531c-3.1418-2.5898-3.3322-3.1058-3.2089-8.6972 0.11712-5.3117 0.47021-6.2609 3.3188-8.9219l3.1878-2.9778-2.2182-5.2659c-2.6066-6.1878-5.9554-8.9485-8.743-7.2077-1.3928 0.86981-3.9173 0.77738-10.593-0.38786-10.386-1.8128-10.861-2.0393-19.889-9.4842-6.4783-5.3422-16.261-10.878-19.263-10.902-0.69849-5e-3 -5.2488-2.008-10.112-4.4504l-8.8417-4.4406-4.117-11.165c-3.1928-8.6586-3.8869-11.595-3.092-13.08 0.56372-1.0533 0.7096-2.4253 0.32419-3.049-0.39808-0.6441-0.25792-0.86015 0.3245-0.5002 0.56388 0.34851 2.7247-2.1695 4.8018-5.5955s4.8705-7.4156 6.2076-8.8656c2.4603-2.6682 2.4304-4.6481-0.16533-10.96-0.50215-1.2211 0.58968-2.1186 4.6415-3.8154l5.2982-2.2188 4.1506 4.5524c2.2828 2.5038 5.3879 5.0228 6.9002 5.5978 2.4686 0.93856 3.0427 0.70996 5.6178-2.237 1.5775-1.8053 5.1226-7.8693 7.878-13.476l5.0097-10.193-0.68-8.1538c-0.53888-6.4616-0.38907-8.338 0.72187-9.0414 2.3191-1.4683 29.65-1.0298 42.443 0.68091 19.168 2.5632 17.188 3.1216 21.085-5.945 1.8549-4.3153 3.1212-8.2528 2.8138-8.75s-2.1295-0.90407-4.0494-0.90407c-8.4834 0-20.211-10.732-17.422-15.943 1.6214-3.0296 1.2338-8.5681-0.71965-10.283-3.1902-2.8014-6.0608-3.0533-9.6332-0.84547-3.771 2.3306-8.0614 2.5757-17.207 0.98314-5.8997-1.0274-6.6263-1.4749-12.832-7.9028-6.0756-6.2932-6.5781-7.1499-6.5781-11.215 0-4.339-0.15664-4.5416-11.089-14.347-6.099-5.4704-11.706-10.088-12.46-10.262s-3.4001 0.8736-5.8803 2.3271c-2.931 1.7177-5.2261 2.4153-6.5568 1.9929-2.5854-0.82059-5.7838-7.0183-7.0399-13.642-0.86881-4.5812-0.59929-6.2915 2.6369-16.733 6.3971-20.639 5.969-20.012 17.526-25.69 10.161-4.9926 11.863-6.5033 11.863-10.53 0-3.7902 4.874-8.9354 11.38-12.013 3.3658-1.5923 6.6908-2.8955 7.3888-2.8959 1.5617-9.7e-4 0.75517-3.8874-1.9117-9.2124-1.4341-2.8636-2.7155-3.926-5.6081-4.6497-9.2607-2.317-9.0183-2.3314-9.993 0.59267l-0.90929 2.7279-1.7015-2.5968c-1.6306-2.4886-1.5933-2.8886 0.89342-9.5975 1.4272-3.8504 3.8965-8.5226 5.4874-10.383l2.8925-3.3821 0.0406 3.203c0.0481 3.7946 1.9755 8.4554 3.1869 7.7067 0.46957-0.29022 0.85377-0.0827 0.85377 0.46117 0 1.6555 14.337 11.107 16.866 11.118 3.9648 0.0184 11.924 6.5959 13.099 10.824 0.56314 2.0276 1.0264 4.0684 1.0295 4.5353s0.74479 2.4066 1.6483 4.3106c1.2886 2.7156 3.2823 4.2834 9.25 7.2744 6.8409 3.4286 8.6704 3.8842 18.159 4.5221l10.552 0.70944 1.137-2.4955c1.048-2.3001 0.72653-2.8838-4.1044-7.4527-2.8828-2.7264-6.162-5.2493-7.2871-5.6064-1.8498-0.58711-4.349-4.3691-4.349-6.5811 0-0.48192 1.1561-2.2501 2.5691-3.9294l2.5691-3.0532 7.795 3.9192 7.795 3.9192 1.7184 6.8072c0.94512 3.744 2.3465 10.359 3.1142 14.7 1.5317 8.6604 3.7353 13.092 6.0656 12.197 0.81262-0.31183 1.2214-0.15259 0.90838 0.35388-0.51417 0.83194 12.293 11.455 18.465 15.317 1.4326 0.89624 7.0787 2.0453 13.224 2.6911 11.987 1.2599 13.831 0.79907 19.136-4.782l2.8601-3.0089-2.5762-5.6272-2.5762-5.6272 2.6745-5.4531c3.1623-6.4478 6.2151-7.3848 8.2279-2.5254 1.58 3.8143 3.7956 5.6938 7.686 6.5198 2.1323 0.45275 3.9657 1.8936 5.6522 4.4421 4.4941 6.791 9.3571 17.484 11.017 24.225l1.6289 6.6146-3.0729 5.6735-3.0729 5.6735 3.5957 12.566c3.9733 13.886 4.4013 20.063 2.103 30.358-3.1092 13.928-3.7768 21.233-2.3304 25.5 1.2699 3.7459 1.5774 3.9808 4.8396 3.6985 8.6996-0.75284 10.688-0.27023 22.984 5.5774 7.4372 3.5372 18.871 7.8384 28.229 10.62l15.729 4.6746 6.8262-2.0734 6.8262-2.0734 19.445 2.0248c20.895 2.1758 28.026 1.764 41.945-2.4224 3.025-0.90985 11.274-2.0683 18.33-2.5743 11.06-0.79311 13.26-0.69782 15.945 0.69087 1.7133 0.88599 7.6397 2.9249 13.17 4.5309 8.0739 2.3447 11.237 2.8097 16.055 2.3602 3.3-0.30791 9.545-0.8119 13.878-1.12s8.9286-0.9597 10.213-1.448 10.494-1.6 20.466-2.4704c21.297-1.859 22.069-1.7252 40.681 7.0539 6.3239 2.9829 12.008 5.1325 12.63 4.7769s0.81915-0.29884 0.43652 0.12613 1.9799 2.5594 5.25 4.7431c5.1733 3.4546 5.9458 4.3818 5.9462 7.1376 4e-4 2.5596 0.95969 3.9933 5 7.4727 4.0967 3.528 4.9995 4.8942 4.9995 7.5659 0 2.7465-0.61251 3.6046-3.8862 5.4445-5.1505 2.8947-7.3395 2.7576-12.201-0.76436-4.6515-3.3695-10.314-5.4949-12.454-4.674-1.741 0.66808-1.8912 4.7848-0.33187 9.0969 0.97266 2.6898 0.5043 5.4241-3.4221 19.978-4.3852 16.254-4.6994 16.999-8.7278 20.681l-4.1788 3.8198 0.68785 5.9266c0.42499 3.6617 0.27688 6.6944-0.38757 7.936-0.59147 1.1052-5.017 4.2725-9.8345 7.0385-8.7104 5.0011-8.7706 5.0183-10.824 3.0896-1.7308-1.626-2.3468-1.733-3.8114-0.66201s-1.5667 1.7516-0.6471 4.1704c1.2918 3.3978-0.94366 15.033-3.695 19.233-1.6157 2.4658-1.8352 2.506-9.9931 1.8264-8.3131-0.69248-8.3778-0.67941-19.287 3.8969-12.192 5.1148-19.516 5.9483-26.527 3.019-2.0703-0.86502-4.7127-1.3313-5.8721-1.0362-2.3708 0.60342-14.203 15.75-17.614 22.548-1.7511 3.4898-2.105 5.4737-1.6547 9.2761 0.42238 3.5664 0.0263 6.265-1.508 10.274-1.7356 4.5355-2.6408 5.6224-5.456 6.5515l-3.3751 1.1139v7.3588c0 8.5817 3.6299 19.344 9.3928 27.849 2.8868 4.2603 4.0064 7.6117 6.5603 19.637l4.7503 22.353c1.6872 7.9302 4.2491 12.647 6.8692 12.647 1.817 0 1.8004-2.148-0.0726-9.3387-1.9122-7.3414-1.888-9.9975 0.12718-13.961 0.89494-1.7602 1.7531-3.346 1.9071-3.5241 0.70071-0.81047 6.3386 2.9808 7.8399 5.272 0.91912 1.4028 3.6452 8.9026 6.058 16.666 3.7284 11.997 4.9474 14.69 8.1216 17.941l3.7348 3.8248 7.1006-3.5758c8.9108-4.4874 12.677-7.3495 16.02-12.173l2.6373-3.8057-1.5803-6.8141c-0.86917-3.7478-2.462-8.5424-3.5397-10.655-2.5344-4.9678-1.4638-9.6286 4.446-19.356 3.7596-6.1884 4.8448-7.2319 9.3596-9 4.2165-1.6513 5.4697-2.7457 7.1874-6.2768 2.4582-5.0533 2.6349-10.078 0.59127-16.814-1.8341-6.046-1.8496-10.972-0.0469-14.909 0.75552-1.65 1.4102-2.4274 1.4549-1.7277s1.9385 3.2873 4.2086 5.75c4.661 5.0566 8.9689 6.0348 10.877 2.4698 0.59102-1.1043 3.3912-3.8391 6.2226-6.0772l5.148-4.0693 1.6325 2.1642c1.5086 2 1.9645 2.0748 6.0091 0.98573 5.8184-1.5667 6.5346-0.48145 7.4375 11.271 0.96096 12.508 3.1989 23.883 5.9193 30.086 1.2415 2.831 3.0405 7.9664 3.9978 11.412 1.7278 6.2189 1.724 6.2938-0.51724 10.282l-2.2577 4.0171 1.7217 19.523 1.7217 19.523 6.0689 12.107c3.3379 6.6587 6.9141 12.822 7.947 13.695 2.0673 1.7486 5.4851 19.81 4.3972 23.238-0.32725 1.0311 0.98922 8.7318 2.9255 17.113 4.0701 17.617 6.1186 34.586 5.2264 43.294-0.40767 3.979 0.0562 10.579 1.3415 19.086 1.8074 11.963 1.8419 13.399 0.43172 17.931-2.851 9.1631 0.33087 49.534 5.0288 63.804 1.4264 4.3327 2.5935 8.2245 2.5935 8.6485 0 1.2572-8.3185 5.7889-9.6725 5.2693-0.68514-0.26292-2.6333-4.1546-4.3293-8.6482l-3.0836-8.1702-9.3233-5.7385c-5.1278-3.1562-9.9461-5.7371-10.707-5.7354-2.6998 6e-3 -13.271 7.9406-16.007 12.014-3.4251 5.0999-4.3142 10.633-3.5983 22.392 0.44763 7.3518 1.0661 10.003 3.233 13.859 2.3468 4.1761 2.7124 6.0382 2.9449 15 0.24818 9.5659 0.49793 10.668 3.8364 16.937 3.074 5.7717 5.7324 15.19 4.5775 16.217-0.20376 0.18124-1.294-0.0936-2.4227-0.61078zm-271-177.06c2.3695-2.9686 4.5899-4.7557 5.9208-4.7653 1.1712-8e-3 2.6639-0.35508 3.317-0.77035 1.4821-0.94243 3.5575-6.2143 2.4463-6.2143-1.4962 0-17.146 15.477-17.14 16.95 7e-3 1.6204 0.0281 1.6002 5.4558-5.2zm-77.418-10.377c-1.4859-4.3989-2.0784-7.9865-1.7381-10.524 0.59468-4.4337-0.90657-6.2388-1.8992-2.2837-0.75585 3.0115 1.0843 12.272 3.406 17.141 2.5311 5.3078 2.6617 2.8612 0.23143-4.3337zm135.44-189.32c0.83711-1.6188 1.1404-3.1791 0.67388-3.4674-0.98452-0.60847-12.705 1.6381-13.692 2.6244-0.61646 0.61646 7.5184 3.56 10.271 3.7167 0.67338 0.0383 1.9092-1.2548 2.7463-2.8736zm-10.991 211.18c-2.0254-1.4584-3.5242-6.4803-2.9105-9.7518 0.46787-2.494 2.0405-4.412 6.3814-7.783 3.1683-2.4604 6.7699-4.7938 8.0037-5.1854 2.6098-0.82833 2.6165-0.86392-2.2334 11.877-3.6799 9.6672-6.4158 12.877-9.2411 10.843zm64.532-12.985c7e-3 -0.4125 0.68558-3.225 1.509-6.25 0.92772-3.4081 1.8569-14.027 2.4431-27.919 0.72807-17.256 1.279-22.752 2.3922-23.866 1.2617-1.2617 1.6406-1.1444 2.9689 0.91924 0.83745 1.301 3.5686 8.4405 6.0693 15.866 4.4252 13.139 4.5206 13.683 3.569 20.329-0.53773 3.756-1.4414 7.6955-2.0082 8.7545-0.99348 1.8563-14.946 12.916-16.294 12.916-0.36354 0-0.65564-0.3375-0.64911-0.75zm56.381-36.022c-3.0287-2.4836-10.393-16.473-10.393-19.743 0-4.247 3.9305-16.485 5.2946-16.485 2.361 0 15.018 22.818 16.224 29.25 0.57786 3.0803 0.29017 4.0319-1.8727 6.1948-2.9598 2.9598-6.2586 3.239-9.2533 0.7832z"/>
 </g>
</svg>
