<?xml version="1.0" encoding="UTF-8"?>
<svg viewBox="0 0 622.2375 489.325" xmlns="http://www.w3.org/2000/svg">
 <g transform="matrix(1.25 0 0 -1.25 0 489.32)">
  <g transform="scale(.24)" fill="#808080">
   <path d="m830.32,1512.3c0,0-16.199-22.8-16.199-6 .899,2.7 3.297,4.81 5.699,7.5-8.402,10.2-11.699-4.8-14.101-4.8v14.4c-7.797,6.3-14.098,1.8-18,11.1 .601,3.3 9.902,17.1 15,17.1 5.101-6.6 6.902-8.4 13.203-.9-5.402,9-5.102,9-2.402,19.8 11.101,0 14.398-7.2 25.203-3.59 0,6.59-4.805,9.29-4.805,18.59 8.703,0 4.203,20.4 17.102,5.7 9.601,0 2.101,12.9 0,15 3.3,2.1 8.398-1.79 11.699,2.1 0,10.2 19.801,16.2 24.301,22.8 4.5-.9 18.601-16.5 18.601-1.2 22.199-1.8 22.801,3.9 36.899-16.79-8.102-8.41-3.903-17.71-11.7-26.71 2.102-12.9 1.2-8.1-4.8-14.1 3-18.6 10.199,5.7 11.101,8.4 0,6.91 1.801,6.3 6.301,8.7 6.598-9.29 0-17.4 0-28.2-6.902-8.1 1.797-19.2 3.898-26.7-20.398-23.1-.902-8.1-.902-28.2-3.598-4.5-6.898-7.5-12.598-7.5-4.199-9 10.2-12.3-4.5-12.3-4.8-5.7 9.297-9.9 4.5-16.2-9.902-5.7 1.801-7.5 12-7.5 0-2.7 6.602-16.8 9.297-20.69-13.496-24.31-3.597-21.61-14.097-47.11-2.098,0-15-3-15.602-3.9 0-9.6.301-11.1 10.801-11.1 6.301,6.9 12.301-1.8 22.801-3.89 12,6-3.903-18.91-1.801-14.11-15,6.91 0-8.7-13.199-8.7-8.7-10.19-5.098-8.1-18.602,1.2-13.496-22.2-9.898-24-11.098-4.8-10.5-11.4-14.101-18-27.3-15-11.7,3-19.2-1.5-21.899-9.59-27.902,12.59-16.5,18-5.703,37.8 0,6.89-8.398,16.5-8.398,23.39 11.101,8.7 18-15 27.3-13.19 21.301,0-4.5,21.29-7.8,23.69 0,9.9 4.5,6.3-3.301,12.31-3.602-7.21-2.399-1.51-8.399-5.41 0-1.2-.898-2.1-.898-3-9.902,0-5.402,18.6-5.402,26.4-3.899-.3 29.699,11.7 26.699,10.2 0-.3-40.496,45.9-35.996,40.5 0,12.6-9.305,10.81 4.797,19.2 15.3-6.89 23.398-18.3 15.597,8.4 10.203,14.7 17.106,18.6 17.106,36-4.5.9-18.602-20.1-18.602-22.8-9.902-8.1-12-.3-20.699-14.1-4.801,0-9.902,3.9-11.102,7.8zm-66,3.6c0,7.5 12.602,3.6 15.598,2.7 14.402-3.3 6-25.2 26.402-31.2 0,13.5 13.5-10.2 13.5,3.6 6.301,4.2 6.899-8.1 6.899-9.3 13.801-13.8-.297-21.9 20.402-20.7 11.399-18 2.102-15.6 2.102-38.7-2.102-3-6.903-1.8-9.903-1.8 0-4.8.899-10.5 1.5-15 0-20.7-16.199-2.7-21-17.1-12.601-6-24.898,28.2-21.898,33.9 14.398,0 9.898,17.1-7.203,14.4-10.5,12-6.301,48.6-20.399,56.41 0,12 5.098,18-6,22.79zm58.5-182.1c-11.097-5.4-9.902-11.1-14.101,2.7-4.797,15.9-30.598-3.6-30.598-13.2 5.399-6.3 15-10.19 21.301-16.8 13.797,9.9 41.398,17.11 31.797-11.4 5.101-6 8.101-16.2 10.203-22.8-.301-11.69-1.504-16.2 11.098-16.2 5.402-10.2 15.601,1.2 19.8,6 2.399-1.2 6.899-6.6 10.2-6 10.199,9.6 20.398,1.5 27.902,11.7 5.398-3 12.898-.89 18.898,6.3v5.7l9.297,3.6c3.004-3.9 4.504-8.4 7.801-5.4 0,9.61 12.602,3.61 17.402,8.4 8.098,4.2 4.2,8.4 1.5,13.2 .602,1.2 3,3.9 4.5,4.81-11.101,12.89-3.3,13.79-10.8,22.49-4.801,0-24.297,5.1-21.899,5.1-10.5-7.8-14.101-14.39-29.699-14.39-2.102-12-14.102-6.01-14.102-19.81-5.699,0-5.402-.9-8.101,5.7-9.301,0-12.598-11.39-20.699-11.39-1.801,1.8-2.399,6.89-2.399,9.29-5.699,7.21-12.898-3-18.898,9.6 6.898,3.3 7.797.9 7.797,8.4-9.899,6.9-17.399,10.21-28.2,14.4zm-25.8-52.8c0-16.8-9-9.3 0-28.5 16.8,0 10.8-7.2 29.699-.9 0,10.2-15.301,28.2-18.598,33.9-3.601,2.11-9-2.1-11.101-4.5zm-46.2,14.1c-3,0-8.101-3.9-9.898,0 0,5.7-7.203,8.4-9.301,11.4-2.402-3-2.402-3-5.101-5.7 8.402,0-.899-11.7-1.5-12.3 10.5,0-3.602-15.9-4.5-16.2 3-6 12.3,0 12.3,4.8 4.801,0 9.301,2.7 12.602-1.2 0-8.7-6.301-20.4 5.398-23.4 0,8.4 4.801,3 8.7-.9 6,0 8.101.9 13.199.9 0,.3 7.801,15 7.801,14.1-11.399,13.51-2.399-1.2-2.399,13.2-8.402,0-7.801,33-7.801,34.8-6.902,8.1-6.902,5.1-13.8-2.7-3,3.6-4.801,9-6.899,3.9 0-8.1-1.801-13.5 1.199-20.7zm10.2,114.9c-1.801-9.59 9.601-33.89 12.601-43.2-.601,0 23.699,13.81 19.5,12-7.801,5.4-3.902,6.9-3.902,14.4-11.098,13.8-14.996,15.91-28.199,16.8zm-66.301-22.5c0-14.39 16.199,1.2 22.5-6.89 12,0 10.5.29 15-9.31 12.301,0 4.504-10.19 14.699-10.19 7.5,19.5 21.301-11.41 3.902,23.39-1.8,2.4-10.8,16.5-10.8,21.6-9.899,4.2-24.602,1.8-31.5,18.9-8.7,3-12.301,10.2-21-.9 10.199-27.6 16.5,3 16.5-16.8 4.199-5.7 9-6.3 5.398-13.19-10.5,0 7.801,7.79-14.699-6.61zm34.203-19.8c-17.703-4.5-1.801-.9-8.402-7.5 2.402-3 3.601-5.09 8.402-.9 0,6 4.797,3.31 0,8.4zm-101.703,24.3c0-11.1-13.199-16.8 13.5-6.3 4.5-6 3.902-3 11.699-3 10.203-11.7 14.102-3.6 14.102,7.5 0,0-21.301,17.4-21.301,3-7.797,0-11.399,7.5-18-1.2zm-13.801-10.2c-3.297,0-5.699-1.19-7.199-3 0-6.3 3.902-7.5 3.902-13.8 3.899-4.8 5.098-5.1 8.699-1.2 0,5.7-1.8,14.4-5.402,18zm19.504-14.1c-6.301,0-6.602,2.1-11.703-3.9 0-6 3.004-11.4-5.699-11.4 0-4.8 9.3-5.4 12.601-7.5 0-12.9 15.598-.9 18.899-.9 0,6-2.399,10.8 0,14.1 .3,2.4 7.5,14.4 2.402,14.4-2.102.3-12.602-4.8-16.5-4.8zm-99.301-33c-3.902,0-20.101-15.3-21.301-15.3 4.5-2.7 10.5-11.1 18.899-11.1v7.5c6.902,1.5 9.301-6.6 9.301-11.39-.301,0 23.699,15.29 22.5,14.09 0,10.2-.301,7.8 10.199,7.8v-7.8c9.301,0 7.801,7.5 15.601,10.5-.3,1.8-1.199,3.6-1.199,6.61 6.301,2.39 8.098,1.49 10.797,5.69 2.703-1.5-3.297,21.9-4.797,23.7-1.203-1.8-12.301-12.6-15.601-12.6-2.399,4.8-6.301,4.8-10.801,4.8-4.5-3.3-30.598-15.9-33.598-22.5zm34.199-58.8c-6.601-7.79-5.101-6.6-.601-12 6.902,0 8.101-1.5 11.703-6.6 7.199,0 12-.6 16.5,4.8 4.199,0 4.5-1.49 4.5-4.8 8.699,0 21.297,4.8 28.199-3.9-5.699-7.2-17.101-1.2-23.402-8.4-18.598,0-11.098-12.6-4.797-20.7 22.5,4.5 24.301,2.1 37.5,16.8 9.898,4.8 27.297,14.4 40.199,6.6 7.801,0 10.5,17.1 11.399,22.8 4.8,19.5 2.402,8.7-3.598,23.41-6.902,0-7.801-5.41-13.504-5.41-1.797,0-2.996,20.11-2.996,21.6-7.504,0-1.801-8.99-7.199,10.2-.602,0-23.703-8.7-16.504-5.7-1.5-11.1 2.703-15.6 8.703-22.49-5.102-15.61-5.703-10.21-3.902-20.71-5.399-5.7-7.801-.29-7.801,5.7-20.699,7.5-26.699,16.5-39.899,34.8-6.898,0-6.3-4.79-10.199-9.29-7.504,3.89-1.199,7.49-11.101-3.01 0-6.6 3-11.1-9.301-15 9-10.2 15.004-8.7-3.899-8.7zm.899,21c-10.199,5.71-15.899-6.6-21.899-10.5 3.899-3 6.899-3 9.301-8.4 14.399,3.3-3.601,12 12.598,18.9zm29.699,32.1c7.504,0 11.102,10.8 15,0-3.297-5.7-11.996-5.7-16.5-4.8 0,.91.602,2.1 1.5,4.8zm206.402-28.2c-3.597-3-2.101-3-5.398-7.5 2.398-1.19 6.297-1.19 7.797.61-.899,1.19-4.199,5.39-2.399,6.89zm-13.199-19.19c-3.301,0-9-3.31-5.402-8.41 6,0 5.101,3 5.402,8.41zm-82.203-16.81c-2.098,2.7-3.297,4.5-5.996.9 0-4.2 3.297-13.2 7.797-13.2 3.301,3.91.301,7.5-1.801,12.3zm6.902,20.7h-5.101c0-8.1 5.101-2.4 5.101,0zm-3.601,10.5-7.801-2.09c1.203-1.8 3.602-4.81 6.301-5.41 0,10.2 4.5.3 1.5,7.5zm-1.5,9.3c-3.297,0-6.301-.89-9.598-.89 0-1.8.899-3.01 1.801-3.61 2.098,0 7.797.6 7.797,4.5zm28.801,21.6c-3.297-.6-3.297-3.6-4.801-3.6 0-3 1.504-3 3.902-3 2.699,3 .899,3.31.899,6.6zm-29.7-9.29c-9.3,1.19-3-2.41 0-6.61 8.102,0 4.5,3.3 0,6.61zm-10.199,40.49c-3.301-8.4-1.5-8.7 6.899-15.9 0-1.5-10.2-6.59-11.399-4.8 0,6.6-2.402,15.9-1.801,21.9 9.301,0 4.801-.3 6.301-1.2zm88.199,11.4c8.399,0 14.098.9 22.2,0 0-3.9 3.601-9.3 1.5-12.3-3.301,0-7.801,3-7.801-4.8-8.098,3.9-3.598,8.1-10.199-.9-6.301,0-6.301,15.3-5.7,18zm40.801.9c0-11.7 6.301-3.6 6.301-12.3 4.797-5.4 6.297.9 8.098,7.2-2.098,2.7-11.7,8.1-14.399,5.1zm-28.203-131.1c3.004-3 5.102-3.6 9.602-.9-2.098,2.4-6.301,3-9.602.9zm-10.797,1.8c-2.402,0-7.199-.9-7.801-3.6 5.399,0 5.102,3.6 7.801,3.6zm-329.699-126.6c-4.5-1.5-5.102,21-5.102,23.7-16.8,17.41-5.101,9-14.101,20.7 6.004,9 6.004,1.5 11.101,16.21 8.102,5.09 9.301,3.59 9.301,14.09 10.5,15.91 15.598,33 15.598,51 5.101,0 9.601-2.7 14.101-2.7 7.2,8.7 6.602,4.8 15,4.8 7.2,8.7 8.399,8.4 11.399-1.2 16.5-19.2 22.801-16.5 48.601-16.8-1.199-3.6-2.398-7.5 4.5-7.5 4.2-7.5 8.399-16.5 6.598-25.5-47.098-26.4-29.398-8.1-59.699-39.9-.899-1.8-1.199-8.4-1.199-10.2h-6.598c0,1.5-9.004-15-10.203-17.1-6.598-2.1-13.199-.3-13.199-6.6-4.801,0-4.5,2.11-6,5.7-3.899,1.2-20.098-8.09-20.098-8.7zm380.398,115.2c15.602,0 2.7-10.2 28.2-6.9 5.101-5.69-1.2-8.7-3.899-11.1 0-2.1 1.797-3.9 1.797-5.7 0-1.5-6.598-14.4-8.098-16.2 0-.3 6.301-11.1 6.301-7.5-2.402-2.69-3.902-6.3-4.801-10.5-16.8,0-16.5,0-11.097-15-3.602-4.5-9.004-12.3-9.004-18.89-9.598,0-22.801,32.69-26.098,38.09 3,6.9-3.601,12-3.601,19.5 8.101,10.8 18.3,5.4 3.601,19.8 .301.9 9,9.6 8.699,9.3 14.7-.9 10.2-4.8 18,5.1zm-74.101-20.7c2.101,0 13.199-1.2 13.199,4.5-8.996,0-12.898,5.41-13.199-4.5zm15.601-30.3c-1.5-13.2 3.899-10.5 13.2-10.5 6.601,24.3 6.3.91 6.3-8.4 6.899-6 6.602-3.3 4.5-11.4 0-9 1.801-13.2 0-21-13.199,0-5.402.3-11.398-8.1l-10.199,2.7c0-8.39 3.597-9.9-3.301-17.7-7.504,7.8-26.703,25.81-32.703,31.81-4.797-3.01-10.199,2.69-15.899,2.69 0,9.31 1.5,7.81-6.3,11.7 0,6.61-9,17.11-4.5,23.4 15-3 15.3-.6 24.898-13.2 24.602,0-10.195,25.8-10.797,26.4 0,9.6 10.797.9 3,10.2 1.199,1.2 13.797,23.1 18.899,10.5 4.5-16.2 23.699-6.6 29.699-1.8 5.402-6.9 2.101-8.7-.899-12.3 0-2.1 1.5-4.8 3.301-6.6-4.801-5.1-6.301-2.1-7.801-8.4zm-102.601,15.91c-4.797-6.61 4.5-18.01 7.203-22.81 9.598,0 8.699-14.69 9.898-19.5 5.399,3.31 5.7,5.1 5.7,12 1.8,6.3 10.199,28.5-6.301,28.5-3.598-9-16.5-12.6-16.5,1.81zm71.101-188.71c3.301-3.6 4.801-8.697 8.098-12.298 0-.899-1.797-2.7-1.797-2.7-10.801,0-4.203,10.798-6.301,14.998zm1.5,24.6c-5.402-6.89 10.5-6.6 12-6.6-4.199,3.9-6.3,6.6-12,6.6zm18.899-29.39c-4.199-3.005-6.899-6.606 2.402-6.606 0,2.699-3.902,8.396-2.402,6.606zm-237.598,154.79c7.199,0 14.699-3.29 14.699,11.4 10.5-1.2 11.403-3.9 14.7,7.5-1.2,0 16.5,6.9 20.402,7.5 6.598-7.8-1.504-15.3-1.504-25.5 6.301-4.5 7.801,2.7 7.801,7.5 10.5,0 24.004,1.5 23.699-10.2 8.102-7.2 3.004-2.7 3.004-13.2-13.801-11.1 2.699-9 2.996-8.4 1.504,8.7 4.203,5.41 11.102,0 10.5,0 3.3,9 7.8,14.11 0,6-8.699,9.29-5.398,13.19 18.598,0 24.598-30.9 28.801-40.5 8.398,0 3.597-4.19 4.797,10.2-4.2,5.1-6.301,34.2-3.301,37.8 6.301,0 7.203,3.6 17.101,3.6 2.7-5.1 27.602-66 27.602-75.3-9.602-16.19 2.699-13.8 15-29.4 8.398,0-6.004,15.3 11.398-5.4 6.602-2.4 11.102-3.3 16.5-6.9 0,2.1 1.5,3.9 2.399,4.8 9.902-11.7 5.699-4.2 5.699-18.9-4.199-4.8-12.598,6-12.598-6.6-13.8-4.5-2.101,9.6-16.5-7.5 0-4.8.899-9.9 3.899-12.3 3.301,7.8 3.301,7.5 12.601,7.5 4.2-6 3.301-6.3.598-14.1 1.801-2.1 3.902-3.9 3.902-6.6-6.898-1.798-9.3,2.7-14.097-2.997-18.602,0-17.102,10.797-24.903,2.997-11.101.6-9-.895-10.199,6.6 0,2.1 2.399,2.1 2.399,4.8-3.899,1.8-10.2,1.8-14.102,6.6 3.301,12.3 4.203-.3 10.203,6.6-6,7.8-24.902,1.2-24.902-7.5-15,3 0-5.7-7.801-5.7-9.598,6.01-7.199-8.7-7.199-6.9-15.598.91-5.699,2.41-12.598-4.5-24.601-7.196-50.703-20.696-74.402-4.798 0,.903-2.399,22.208-2.699,22.798-5.7,5.7-17.7.91-23.7,2.1-.601,0-21.3,18.6-21.3,26.1 6.3,7.2 9.601,6.3 16.8,14.4 4.801,0 6.903-2.4 6.903-6.9 3.297,0 4.496,5.7 6.898,6.9 15.899,2.4 15.297-9.6 25.797-9.6 0,8.4 15,4.8 18.902,4.8-3.597-5.1 4.5,4.5 5.399,12.3-4.199,1.2-37.199,21-42.899,7.81-6.898,1.19-44.101,6.29-44.101,22.19 5.402,0 26.703,8.7 26.703,15.31-6.602,0-14.402,5.09-18.004.89-5.398,6-10.199,23.41-5.398,29.1 8.699,0 15.898,1.8 11.101,12.3zm496.499-243.295c-6-9.003 4.8-17.402 4.8-23.703-4.8-7.8-7.2-12 3-14.097l4.8-18.903c-5.4,0-3-1.8-7.8,3 0,3.301 3-18.898 3-20.097 7.5-2.102 7.2-1.5 11.7,4.797 6-2.098 6.3-15.899 16.5-15.899 10.5,11.399 11.7,9.902 10.8,25.5 9.6,0 13.5,13.5 13.5,20.699 2.4,3.301 6.9.602 10.2,5.703 8.1-4.8 12-5.703 21.9-11.402 6.9,13.5 11.7,7.199 17.1.902 3,11.7 9.3,5.399 9.3,17.997-4.5,5.402-18.6,2.703-24.9,2.703-5.4,11.097-4.2,5.398-22.8,14.097-4.8,3.301-16.5,9.602-22.5,9.602 0,6.898-7.8,12.301-7.8.898-12,0-6.3,15.004-16.5.903-7.2,1.199-11.7-6-11.7,6.597-8.1,5.703-22.5,18.903-12.6-9.297zm28.2,28.2c-.9-4.801.6-7.504 3-10.203l.9-1.196c3,1.196 7.8,2.996 11.1,4.797 0,6.602-10.2,6.602-13.5,8.699-.9,0-1.5-1.199-1.5-2.097zm-21.9-2.7c3.6-4.804 5.7-6.601 10.8-11.402-3.9,7.5-4.8,6.301-10.8,11.402zm-755.4,168.305c-9-3.61-6.598-4.81-8.7-13.21 4.801-2.7 13.5,5.7 16.5,9.3 0,3-.902,3.91 0,5.7-3,1.8-7.199-.9-7.8-1.79zm-29.098-17.71c.898,0 2.398-2.1 3.297-2.1l1.5,3.9c-3.899,3.61-4.797,9.61-4.797-1.8zm699.598,2.7c0-3.29 4.8-11.7 6.902-3.9-2.402,0-5.703,3-6.902,3.9zm32.699-83.1c-.899,0-2.399-.9-3.297-.9 2.699-17.998 7.496-8.396 3.297.9zm-.598,252.31c-.902-6.61 7.801-24.31 11.399-29.71 1.5-8.7 2.699-8.1 13.5-8.7 6.3,5.1 18.9,7.8 23.4,13.5 7.2,0 8.7.9 13.8,6.3-7.8,13.5-7.8,18.3-22.5,23.4 3.9.9-36.9-15.29-39.599-4.79zm25.499-159.61c-1.2,0 31.8-3.6 19.2,8.7-10.8,0-7.5,6-13.2,7.8 3.6,9.3 10.8-2.39 14.1-5.4 2.4-2.1 21.9-6.3 11.7,5.1-12.6,12.91 39,3.6 29.7,6.6 6.6,17.7-2.7,1.81-14.7,16.5 0,10.5 15.9,3 20.7,3 5.1,0 1.5-22.8 10.5-22.8 .3,1.2 19.5,9.61 24.6,8.4-5.7,1.21 17.1-15.9 17.1-16.2-6.6-6.6-13.5-17.7 5.4-19.5l6.6,12.9c2.4,2.7 11.4,11.1 13.5,2.1-9.3-16.5-2.4-5.4 8.4-16.2-.3.3 31.2,4.8 26.4,3.3-6.3-1.19 25.8-30.9 25.8-35.1s-7.2-44.7-6-47.7c3.3-10.8 5.1-9.89 13.5-9.89 3-7.508-5.7-9.008-9.9-13.208-5.1-19.199-22.5-18.601-36.3-22.496-22.8,0-5.4-34.504-4.8-37.804 2.4-11.098 13.5-7.797 30.9-14.098 4.2,10.801 22.8,30.301 37.8,30.301 4.8,14.398-21.6,7.199-24.9,7.199-10.8,12.601 0,9.598 9.9,6.301 2.7-.903 10.5,6.3 10.5,6.3 2.4-2.402 18.9-18.902 16.5-18.902 17.4,13.199 19.5,3.301 29.7-8.699 19.8,7.199 28.8,9 14.7-8.402-10.2,1.8 40.8-6.598 38.7-5.7 0-18.297 11.4,3 11.4,4.203-1.5-12.3 82.8,2.997 73.2,1.497 .9,4.8 7.8,5.101 10.2,8.101 6.6,7.5-7.5,11.699-9.3,17.102-3,0-5.1-5.102-8.4-3.301 0,11.398-21.9,8.398-31.2,11.398 53.1-8.398-33.9-2.097-33.9,6.903 1.5,4.5 18,2.097 19.5,2.097 10.5,0 8.4,2.7.9,6 24.6-5.699 30.9-2.097 48-3.898 1.2,0 19.8-10.801 15-4.801-2.7,0-9,3.899-9,7.801-2.1,0 .6,17.098-8.7,17.098 3.9,4.8 4.2,5.101-1.2,7.798 0,6.9-7.8,20.7-16.5,20.7-13.8,0-16.5-7.2-9.6,8.4-.6,1.5-40.5,13.2-35.4,12.61 22.8-2.41-25.5,7.79-26.1,7.5-6-2.71-7.8-14.11-12.3-.31-2.1,5.7 5.7,6 5.7,10.81 0-2.71-20.1,15.59-22.8,15.59 0,9.3 58.2,3.6 53.1,5.41-9,2.09 15-15 17.4-16.21 4.8,0 15,.3 19.8-.6 2.1-.3 6.6-.9 5.4,3.61 0,23.39-9.3,11.09-9.3,20.99 4.2,3 18.6,14.4 2.4,21.3-1.5.9-.9,20.1 0,23.1-17.1,16.81-31.8-6.9-33-7.8-5.7,24.9-17.1,0-18.9-.89-4.8,6.89-10.8,28.49-24.3,21 0,19.79-17.7-1.21-18.6-3.01-22.8,7.51-38.1,7.2-35.7,6.9 13.8-3.6-33.9-15-16.2,2.7 8.7,3-2.1,11.1-1.5,14.1 12,0 18.3,9.6 14.1,12.9-7.5,15-35.7-6.59-41.7-3-3.3-4.2 15.6,9.3 20.1,14.4-19.2,11.1.9,15.01-25.8,15.9-18-23.7-9.3-5.7-6,2.4-16.5.3-44.4-11.4-51.3-15.29 0,7.79 3,18.89 3.9,27-16.5,0-46.2-9.31-55.8-9.31 1.2,26.4 1.5,24.6-17.4,31.2-24.3,6.91-4.2-9.3-24.6-9.3-17.4,0-17.1-1.8-24.6-16.2 4.5-3.3 9.9-6.89 15.9-3.6 1.8,1.2-17.1-13.2-17.1-13.2-3.6,7.5-21.9,15.91-13.5,1.8 2.7-4.2 1.2-8.39.3-12.6-30.898-10.5-.9,7.8-16.8,15.3 0,21.6 8.4-12.9-18.301,45.6-12.598,8.4-9-7.5-12.598,3.9-4.801-10.5-11.699-20.4-22.5-25.5-15-3.59 3.598-16.5-4.199-17.7 4.199-2.7 2.996-23.39 15.598-29.7-7.2,0-3.301-11.4-3-15.6-.301,5.1 21.601-11.4 21.898-11.4-6.297-8.1 1.203-9.9-2.699-17.69-5.399,1.49-9.899,5.69-15.297-.31 0,13.2 12.297,16.8-6.301,26.4-16.5,8.4-19.199,33.3-19.199,49.5 0,14.7 5.699,14.7 12.898,25.2-18,11.4-12.3,1.8-41.101-11.1 0-8.1-8.399-20.4-13.199-31.19 0,.59 3-10.81-3.598-22.81 0-17.4 9.297-.6 3.598-23.7 32.101-23.99 16.199-11.4 51.902-25.8-11.703-2.1-18.902-5.4-5.402-10.8 1.5,0 13.199-22.2 24.3-12.59 1.801-.91 3.903-3.01 2.399-4.81-8.996-1.8-3-12.6.902-1.49 2.399,0 5.699-3.01 8.098-1.81 10.5-3 4.801,9.6 10.199,9.6 26.402-26.7 10.504,15.3 29.702-.9zm448.8-162.895c-.9-.601-3-3.003-3-4.203-3.6-.601-9.9-1.199-8.4-6 4.2,0 17.7-9.597 17.7,2.102-3,2.398-1.8,6.898-6.3,8.101zm-9.9,5.7c-1.5-.301-3.3-.301-3.6-2.403 1.8-.898 9.3-3 10.2,0-.9,3.301-4.8,2.102-6.6,2.403zm-11.7,23.398c-1.5-.601-3.6-2.098-3.6-4.199 2.4-2.699 12.3-3.301 12.3,1.801-2.4,2.398-6.6,5.398-8.7,2.398zm-237.9-72.598c-2.1.598-5.4,0-7.8,0 0-1.503 13.2-27.902 19.5-19.8 5.4,6.297-11.4,19.8-11.7,19.8zm12.9,7.801c-10.5,0-.6-4.804 3.6-5.402 .6-4.199 1.5-7.199 7.2-4.5 0,5.098-4.8,13.5-10.8,9.902zm128.4,14.699c-2.1-1.5-7.8-2.101-8.7-4.5 .9-.902 12.3,0 14.4.899 0,3-3.9,3.301-5.7,3.601zm-168,170.695c-.6-2.4 2.1-5.1 2.7-7.19 3.9,0 9.6-.91 9.6,5.99-2.4,2.7-9.3,3-12.3,1.2zm-69.3,27.6c-1.8-.9-3.6-3.3-3.6-5.4 1.2-1.5 8.7-1.5 11.1-.3 1.2,5.7-6.3,5.1-7.5,5.7zm-20.4,1.8c-1.5-.9-3-2.4-1.5-5.1 0-.3-8.1-7.49-2.7-9 1.5,1.51 9.6,6.9 9.3,9-.3,3.01-4.5,3.3-5.1,5.1zm-16.5-.29c-1.5-2.41-.3-6.3 2.4-4.81 0,1.51 1.2,2.4 1.2,3.3-.9.9-2.7,1.51-3.6,1.51zm-21.9-10.5c.6-.61 18.9.59 21.6,1.79 0,3.9-6.3,6.6-9,6.6-1.8,0-4.2-3.3-4.8-5.1-.6,0-7.8-1.8-7.8-3.29zm39.3-21.91c3.6,2.1 4.2,5.7 5.4,9.61-1.2,3.59-8.4,6-8.4,0 0-8.11-.9-6.61-3.9-11.11 2.1-5.1 2.4-6 2.4-11.7 2.1,0 5.7,11.1 4.5,13.2zm62.7-4.2c-3.3,1.2-5.1,4.2-8.7,1.2-.3-.3-11.7-6-11.7-6 .9-5.4 6.6-23.7 9.9-25.8 2.1-1.2 5.1-.6 7.5-.9 2.7,0 7.8-8.1 10.5-4.5 1.2,1.5 1.8,5.4 3.6,6.6 2.7,1.5 9.3,1.2 8.1,7.5-.6,4.21-9,12.9-10.5,18-1.8,6.6-4.5,3.6-8.7,3.9zm11.7,10.2c-5.7.3-5.7,3.9-10.8,3.9 0-.6-.3-1.5-.6-2.1 4.8-3 17.7-5.7 11.4-1.8zm203.1-647.996c-1.5-1.203-2.7-1.203-4.5-1.203-2.1,5.101-7.5-1.196-2.7-3.899 0-2.703-.3-10.8 1.2-12.597 2.4,0 3.6,8.398 6,9.894 1.8,1.508 4.5,6.903 0,7.805zm-57.6,23.098c-1.5,0-24.3-5.098-14.7-12.598 6.9-5.399 7.2,9.301 16.5,1.797-.3.301 14.7-9.895 15-2.992-2.4,7.191-9.3,14.996-16.8,13.793zm-19.2,135c-4.8-.301-6-6.598-3.9-8.7 4.2-.601 4.5,8.399 3.9,8.7zm15.3,6.601c-4.2,3.899 2.1,7.805-7.5,7.805 0-3.906-1.8-1.207 2.1-6.301-1.5-11.102-2.4-15.008-10.2-23.102l-.3-8.097c6-1.809 3.3,3.293 8.7,3.293 6,0 7.5,4.804 6,11.402-.9,3.297-1.8,8.098 2.7,6.902 3.9-.906 9-4.5 8.1,2.704-.3,2.398.9,5.695 0,7.793-3.9,1.8-4.2,0-9.6-2.399zm12.6-60.297c3.6-2.398 5.4,5.094 8.1,5.094-2.4,8.105-6.6-1.496-8.1-5.094zm-174.9,290.098c-13.5,4.199-9-3.902-21.6-10.5-5.7-15 .9-18.301.9-33.301 10.2,0 13.2,15.301 10.5,22.801 4.8,15.601 26.4,18.898 10.2,21zm54.6-3.301c-9.6,1.5-7.5,1.199-7.5-4.801-5.4-2.699-6.6.903-6.6-10.8 0-4.797 11.4-14.399 15.3-16.801 .9,2.101 4.8,23.703 4.8,24.004-.9,2.097-3.6,7.5-6,8.398zm70.5,49.199c.6-.3 22.8-.3 23.4,2.703 2.7,12.297-34.2-7.5-23.4-2.703zm163.2-20.699c-.9.301-2.7.602-3-.598 1.5-4.8.9-5.703 1.5-9.601 3.3,0 6.3,6.601 1.5,10.199zm-240.6,47.402c1.8,0 2.7-1.503 2.7-3s-.9-3.003-2.7-3.003c-1.5,0-2.7,1.503-2.7,3.003s1.2,3 2.7,3zm-1080-413.105c1.5,0 3.301-2.996 3.301-6.602 0-3.894-1.801-6.597-3.301-6.597-1.8,0-3.3,2.703-3.3,6.597 0,3.606 1.5,6.602 3.3,6.602zm-1.199,13.801c2.098,0 3.301-1.196 3.301-3s-1.203-2.996-3.301-2.996c-1.801,0-3,1.195-3,2.996s1.199,3 3,3zm.598-73.793c1.801,0 3.601-2.403 3.601-5.707 0-3.293-1.8-5.696-3.601-5.696s-3.598,2.403-3.598,5.696c0,3.304 1.801,5.707 3.598,5.707"/>
   <path d="m1953.52,682.203c-4.5,0-1.2-9.301 4.2-7.797 2.7.594 3.3,2.992 4.2,5.696-2.1,1.496-5.7,3.304-8.4,2.101zm32.4-114c0-3 3.6-14.695 9.3-11.699-.6,2.098-9,11.398-9.3,11.699zm10.5-6.598c-1.2-3.898 1.5-5.101 4.2-5.101 0,3.601-.3,5.101-4.2,5.101zm-111.3,150.895c-4.8-1.801-10.5-3.297-6.6,4.5 2.7,0 8.1.301 4.2,5.102 0,6.601 4.8,8.097 0,14.105-5.7,0-15.9-11.703-5.1-11.703-.6,0-6-1.5-5.4-2.703-1.5-3.598-5.4-16.496-10.2-16.496-3.9-10.203-4.5-9 .6-15.903 1.8-2.699 6-25.203 5.1-29.101s16.2-30.598 16.2-37.801c0-9-3-6.898.9-14.996 5.1,0 8.7-.301 8.7-6-2.7-1.203-7.5-2.699-9-6.297 1.5-4.199 7.8-14.105 6.3-18.605-.6,0-11.4-16.797-2.1-16.797-2.1-3 15.3,19.8 15.3,7.797-1.8-1.196-7.5-23.696-7.5-28.2 1.5-.601 2.7,0 4.2.606 5.4-6.602 17.1-18.305 23.4-5.707 1.5,3.004 6.6,10.801 6.6,15 1.2.601 22.8,10.504 22.2,10.504 3.3.3 2.7,3.597 2.7,7.195 4.8,0 5.4-.895 10.2,1.805 0,1.8 6,12.601 7.2,15.894-6.3,14.707 0,16.805 7.5,9.606 0-3.297-1.2-7.203-1.2-10.5 14.1-8.106 12.6,14.394 10.2,19.5 4.2,2.398 12.3,4.199 12.3-2.403-6.6-3.898-3.9-12.597-1.8-18.3-5.7-5.094-3.3-4.2-2.7-11.696 9.9-6.008 14.1-.301 17.7,9.594-9,30.602-2.1,16.504 0,30.309-7.8,9.894 0,15.589 8.4,15.589 4.5-7.191 9.6-29.996 19.8-29.996 2.1,5.996 0,11.703 2.1,17.098 3,0 5.4-11.996 7.5-14.695 5.4,0 20.4,7.199 21.3,9.601-3.9,10.196-11.1,2.696-10.5,17.992 0-34.496-21.9,57.903-21.9,23.106 1.8-5.102 1.5-7.504 1.5-15.301-7.5-3.898-1.5,12.899-4.2,14.399 0,1.804 2.7,11.699-1.8,12.605-8.1,0-7.8-9.305-6.3-13.203-2.4-7.199-3-7.199-3.6-13.801-8.1-4.5-6.9,9.602-7.8,12.598-9,5.406.6-1.496.6,17.097 0,1.508.6,18.305-5.4,13.5 0,3.004-13.8-30.898-12.9-29.996-5.4,0-2.1,9.305-2.1,12.297-3.6,4.801-7.2,6.602-12.3.906-2.1,5.403-.6,14.395 1.2,19.497-20.1-3.293-31.8-4.801-42.3-22.2-4.5-2.101-6,2.399-10.5-1.195-3.9-3.605-14.1-5.105-10.2,3.898 .9,2.7 3.9,9.301.9,11.399-4.2,2.402-6.3-3.899-7.5-5.402-5.1.3-4.2,4.199-8.7.601-1.8-4.5 5.1-20.996-2.7-16.504 0,4.5-2.4,13.801-5.7,17.106-1.5,1.8-12,35.996-12,33.3 8.7,4.5 6.6,11.997-1.2,17.399-.6-2.399-3.9-3.301-3.6-6.004zm-69.9-401.691c-2.1-1.508 0-8.704 1.2-10.207 5.7,0-.6,9-1.2,10.207zm-45.9,234.894c-2.1-2.101-14.1-1.195-17.4-2.703 4.2,1.508-12.9-11.098-12.9-10.195 1.2-.602 25.5-1.5 26.1-3.004 6.6,0 33.3-9.594 38.7,5.101 3,6.903 11.7,2.102 14.4,8.399 .9,2.703.6,6.601 1.8,9.004-6.9,4.199-16.2-2.102-22.8-2.403-9.6,0-19.5,4.801-27.9-4.199zm88.2-39.902c-7.2-3.899-8.4-6.598-3.3-12.297 0,2.101-2.4-24.297 3.9-18 5.7,5.101 0,12.898 6,19.199 0,1.203-.3,17.098-6.6,11.098zm-46.2-72.899c6.3-11.101 2.1-2.996 2.7-11.101 3-5.996 7.8-3.899 12.6-7.196 5.4-4.8 3.6-6.898 9-1.503 5.4,0 11.1-1.497 15.9.601 4.2,2.102 3.6,7.504 6.3,10.199 9,0-1.2-4.5 6.3-7.195 6-1.203 8.7,7.496 9.9,10.801-1.5,3.898-4.8,4.199-6.3,7.492 1.8,4.805 9,6.301 9,12.305-13.2,2.996-11.1,2.101-16.8-9.301 2.4,4.801-17.4-12.598-10.8-8.399 0-8.699-9-2.703-12-6.902-3.6-4.801-6.3.301-10.5,1.5-5.4.301-10.2,7.203-15.3,8.699zm-555.6,630.598c0,0-7.5-15.3-7.5-2.39 6.9,6.89-1.5,6.89-8.1,3.89-2.7-6.6 8.1-32.7 9.6-34.5 9.3,0 4.2,8.7 13.8,14.11 0,0 13.5,2.09 12.6,1.79 9,3.6 10.5,4.5 10.5,14.71-.9.59-15.6,12.29-17.7,6.29-8.7,0-8.4,4.5-13.2-3.9zm259.8-582.301c-4.8-9.894-4.2-8.699-14.4-20.695 6,0 5.4-2.699 7.5-8.399-2.4-11.097-2.1-25.203 1.5-30.898 3.9,0 3.9,11.695 3.9,15.895 .9-13.5 8.7-18.598 7.5-2.102-.6,8.398-.3,21.305-2.4,30.309-.3,2.39 17.4,23.093-3.6,15.89zm-359.4-184.496c-1.2-2.699-1.2-4.801-4.2-5.101-2.4-.594-11.1,2.402-8.4-4.801 1.2,0 5.4-2.696 3.3-4.5-2.7-2.395-6-4.793-6.9-8.992 0-2.102 1.5-10.207 4.8-10.207 2.7,0 6.6,2.703 9-.301 3-3.899 8.4-.594 12.9,0 1.8.301 4.8-.594 6.6-.594 .9,2.691 1.2,5.996 0,8.398-3,5.395-.6,5.696.3,10.497 .3,6-2.7,6.601-7.8,6.601-2.4,6.602-.6,10.801-9.6,9zm-99.9-6.297c-5.1-1.207-2.7-3.605-2.7-9-4.8,0-16.2-6.301-18.9.602-3,0-7.8,2.992-10.8,1.496 0-3.305 2.7-6.297 2.7-9.902 0-4.797 7.8.902 9.9,0s2.4-4.797 3.9-5.7c5.1,4.801 14.7,2.102 17.7-2.398 3.3-4.805-.6-5.399-.9-10.199 5.1-3.305 12,1.8 12.3,10.8 0,2.7-2.4,9.895-4.5,9.895 0,3.305-2.4,16.203-8.7,14.406zm-178.798,94.196c-10.801,0-12.602,7.503-20.703,7.503-2.098-4.5-3.899-24-7.496-24-2.403-7.5 14.996-10.804 16.797-11.699 1.199-.605 9.3,6.598 9.3,7.199 3,2.102 12,.594 12-5.402-3.898-2.101-9.601,2.098-10.8-3.598-2.098,0-9.301-.3-7.5-4.8 .902-2.102 5.402-2.102 5.699-5.403 1.504-8.398-3-10.8 6.301-15.3 0-5.696 4.5-11.997 7.8-15.903 2.102,0 3.899.301 4.5,2.703-1.8,3.606-2.398,5.102 0,7.504 0-8.097 10.5-7.203 14.399-9.304-7.5,0 2.101-15.297 2.402-15.297 .899,3.004-1.5,8.699 4.5,8.097 8.399-1.5-.898-10.5 2.098-14.097 7.504-7.504 4.5.894 8.699-1.797 2.402-6.008-8.699-8.707-7.801-15.309 0,1.508 10.805-23.699 12.903-23.699 6.601,34.801 11.699,30.008-3.301,61.199-4.797,0-12.297,6.602-12.297,12.906 .898,12.899-10.504,25.196-12.301,36.899-3.601,17.398-19.801,17.398-19.801,32.398-1.199.903-12,6.903-12,.903 .899-1.797 4.801-9.903 6.602-11.703zm-34.801-31.793c-3.601,0-8.101-1.207-11.402.293-9.301,6.304-12.598,6.597-24,7.503 0-2.703-5.996-28.199 8.402-24.601 2.399.601 3.598,5.101 4.801,7.801 8.398-4.801 13.199-11.399 11.098-20.399 2.398-6.902 1.5-14.105 1.5-20.703 0-2.402 10.8-8.699 12.902-6.301 5.699,7.203 5.098,7.805 5.098,17.098-2.102,1.207-5.7,2.703-8.399,2.703-1.199,3.004-1.199,7.203-.301,9.902 6.301,0 6,6.301 6.598,11.102-6.598,3.297-2.996,10.496-6.297,15.602zm-97.199,229.492c-4.203-10.5-2.102-8.098-12.301-8.098-3-7.496 5.399-18.305-.301-26.703-2.699-5.094-2.101-13.199 2.102-5.695 2.996,9.3 5.699,8.398 9.898,3.297 2.403,1.203.899,2.097 2.098,5.101-3.598,8.699 3.902,11.402 7.203,15.301 .598,4.5-4.5,18.601-8.699,16.797zm20.699-21.602c-1.5-2.398-12-25.195-16.199-20.992-4.5-2.703 4.797-26.102 4.797-27.605 6.601-3.297 3-13.5-1.199-15.895-6.602,7.496-12,2.395-2.7-12.004 2.399-3.598 23.7,33 25.5,37.801 5.399,12.898-6.601,7.203-8.101,7.203-1.199,4.5-2.699,2.695-.297,8.398 7.797,0 10.199,12.899 12.598,19.801-6.899.594-12-2.703-14.399,3.293zm-150,57.903c-7.801,0-8.699,1.8-12.301-5.102-6.3,0-8.699,6.902-8.398-8.098-3.902-4.8-7.801,1.801-6.902-.902 7.8-2.102-19.2-18.594-21.602-18.594-1.797-5.406 5.402-4.804 6.602-4.804 7.199,0 8.101-6.598 14.398-6.598 4.801,2.098-4.199,6.598 3.004,9.902 0,8.399 13.496,6.895 18.297,10.199 0,11.399 4.801,5.395 6.902-.3 1.801-5.7 10.5-1.2 20.098,0 6,6.597-.598,4.199 5.402,8.398 .598.602 33.598-2.101 36.297,3.602-7.797,11.695-28.199,6.894-40.496,9.004-9.602,2.097-8.102-9.606-18.602-6.309 .899,6.008-2.699,9.602-2.699,9.602zm207.598,60.304c-5.399,2.399-2.098-11.703-15.297-10.801-4.5-16.203-7.199-24.902-2.102-41.406 7.5,0 2.399,3.305 11.7,3.305-1.2-2.399.902,24.902.601,26.098 7.801,3.003 5.098,17.703 5.098,22.804zm-63.297,101.992c3.898.301 17.098,1.809 21.898,1.809 2.098-3.906 1.801-4.199-.898-8.406-7.801,0-8.102,0-12.301-3.899 5.399-5.394 6.899-3.297 2.996-13.804-8.699,1.507-6.297-2.098-11.695-6.891-4.801,5.695-3.301,10.797-8.402,17.098 2.398,1.195 11.101,9.3 8.402,14.093zm107.098,47.407c-8.102-3.602-8.399-2.403-8.399-10.5 9.301-7.504 23.399-2.7 34.199-2.7 1.5-1.8 17.7-7.203 22.2-2.101-3.899,10.5-9.899,12.898-16.801,2.699-4.5,4.801-10.199,9-13.797,13.199-10.801,0-4.805-5.398-17.402-.597zm-495.602,97.199c-3.898,0-2.996-3-9.297-3v-9.602c.598,0 37.199-5.097 31.797-7.797 7.203-2.101 15.602,5.098 22.203,6.899 6.899-1.801 6.301-4.199 8.399-13.199-1.5-.903-3-.903-4.801,1.199 0,8.098-10.199,3.598-12.297.601 0-5.402-1.203-3.601-6.301-4.5-.301-2.101-15.301-20.101-16.5-21.601-6.301,0-6,.898-7.801-5.699 9.602-4.203 15-1.801 22.801-9.602h1.5c9,10.5 15,15.301 29.699,17.699l-3.3-12.898c-2.102-.899-4.5,0-6.899.902 0-4.504-19.801-13.203 2.399-13.203 0,7.199 16.5,11.102 17.101,11.402 18.899-3.003 5.699-2.402 12.598,5.7 0,9.597-10.5,3.898-.598,15.898 7.801,0 14.399-9.301 15.598-15.301 8.703,4.801 4.5-3.898.601-8.097-1.5,0-4.8.597-6,.597 0-9.297 6-17.996 10.2-27.3 2.398,4.8 2.101,21.3 2.101,22.8 4.797-5.699 5.098,8.7 4.797,9.301 4.805,5.102-2.398,1.5 7.801,7.801 0,5.398-6.899,7.5-6.899,12.301 1.2,4.5 5.399,6.297 8.399,10.199 0,4.199-2.399,6.898-4.801,9.301 5.703,6.597 7.203,9-1.496,11.699-4.5-6-3.301-7.5-8.699-13.5-7.504,1.801-21.305,4.801-25.805,10.5 2.402,3.301 3.004,3.902 6.602,7.5h10.5l1.8,9.301c-2.699,3.297-8.699,2.398-8.699,6.597-7.199,0-5.402-2.699-5.402-6.597-8.699,0-3-1.203-11.699-4.5-6.301,3.597-15.602,1.797-20.399-3.903-4.801,0-6.601,4.801-11.703,4.801-1.496-10.199-37.5-2.699-37.5-2.699zm-177.898,222.896c-58.801-121.2-125.6997-225.896-193.19969-341.392-4.80078-10.207 7.19922-6.903 12.30079-6.903 6.2969,0-1.5-10.207 5.0977-14.406 6.3007-3.894 14.7031,13.504 15.6015,2.403 1.1992-9-10.5-10.797 0-20.696-.6015-6.304 5.1016-21.304 8.0977-28.508 0-3.293 1.2031-8.097-2.0977-10.195-4.8008-.894-11.3984-2.402-5.0976-10.199 6.5976-10.203 41.6992,18.004 38.9961,14.398 6.6015,0 15.0039,3.305 19.5-5.695-.8985,2.398 13.5002-46.805 13.5002-48 6.601-14.402 2.699-37.207 4.5-53.402 1.203-8.399 1.5-19.207 1.5-27.903 12.601-17.703 22.801-29.699 31.5-45.902 0-4.801-3-9.594-4.5-13.5-12-37.801 3-13.199-8.098-29.695-3,0-11.699.894-11.699-4.2 1.199-.902 2.699-2.703 3.898-3.605 0-4.793-7.199-12.598-10.8-12.598-2.7-7.504-.598-18-3.297-25.496-1.203,0-5.703.594-6.602,0 6.602-11.097 7.5-26.398 10.801-36.004 14.699,0 6.598,14.7 2.996,21.297 0,6.602.902,7.504 5.402,4.504 0-6.301.602-7.797 3.598-12.598 8.402,0 12.301-3.003 12.301-11.101 0-15.902-4.5-2.703-.598-15.602 1.801-1.797 3.598-19.8 3.301-22.8-1.5-9.004 6.301-10.5 3.898-17.997-1.5-.601-6.601-3.3-6.601-5.402 8.402-5.695 3.301-12.598-3.297-16.797 2.699-2.097 12.898,0 10.199-7.804-6.601,0-5.699-14.094-6-16.196 4.801-3.301 3.598-12.605 11.098-13.801 2.402-.601 12.301,2.102 12.301-3.304 6.601,0 6-14.696 4.199-19.496-15.598,13.5-30.598,19.496-39.598,37.195-7.801,0-7.199-6.598-14.402-6.598 4.801-10.199 3.902-11.996 12.902-17.398 0-1.801-5.402-19.199-4.5-15 24-15.902 1.5-9.301 33.899-23.399 2.101-4.5-7.2-6.304-6.301-10.203 2.402-11.101 19.203-30.297 30-32.699 0-1.496 3.301-5.101.601-6.898 3-8.399 10.5-17.403 18-17.102 .899-3 3-.902 3-6.898 1.5-1.196 9.899-10.5 9.899-1.5 2.402,2.996 6-2.098 7.801,3.597 2.699,10.801-3,.602-3,9.907 .902,1.195 1.8,2.097 2.101,3.898-2.699,6.297-7.801,1.195-11.101,2.992 0,3.305 3.902,2.102 4.5,4.5 .601,1.207 2.101,13.504 2.101,15.903-21.301,14.406-10.203,6.601-31.801,37.8-1.8,4.5 6,13.805.899,17.098 5.101-3.293 10.5-3.898 15.902-5.695 4.5-1.203 15-8.399 4.199-13.5-2.699-6.301-4.8-10.2 4.2-10.2 4.5,0 9-9.3 9-15.003-2.399-1.801-5.098,2.699-7.5,2.699-1.2-2.992 4.203-9.301 6.3-10.196 7.801-3.605 14.098,7.797 14.098-9.3-7.797-3.899 2.402-7.203.902-13.2 2.399-1.199 6-4.503 9.301-4.503 79.199-19.196 213-33.301 352.801-34.497 140.398-2.097 194.996,3.899 225.297,6.903 60.301,4.492 99.301,9.894 162.301,24.894 3.3,1.203 2.402,5.703 3.3,8.399 5.399,0 8.7,8.105 6.301,12.004-2.699,2.699-3.301,3-6.601,6.297-2.102,1.8 8.402,4.199 8.402,4.5 0,1.5.898,10.5 2.098,11.101 2.101-3.297 2.699-6.601 8.4-6.601 1.2-3 4.5-10.797 0-11.704-2.701-.289-8.1-2.691-5.4-6.597 4.8,0 12.3,7.504 14.1-.594 1.2-4.199 4.8-2.102 7.2-2.102 0-2.699-3.9-6.898-10.5-6.898-6,0-4.8-.602-5.1-7.805-2.7-.894-3.599-3.597-3.001-6.601l12.901-.594c2.1,0 5.4,2.395 7.2.293 0-9.895 11.7-.895 12.9-5.996 8.4,0 4.8,16.504 5.1,18.902 5.1,0 18.3-9.902 21.3-12.906-5.1-11.695 3.6-5.996 3.9-4.199 4.8,0 8.4-4.801 14.4-2.996 15.9,3.597.3-1.203 12-3 6.3-1.801 12.9,5.402 17.7,8.097 7.8,5.102 9.3-3.597 18-.597 5.4,1.8 9.9,2.996 15.9,1.5 17.7-6 .3,3.898 9.9,3.898 2.7,6.598.9,15.297 5.7,21.004 7.2,0-5.4-14.707 8.4-5.402 0,1.797-.6,9 1.8,10.195 1.5-.895 5.7-3.297 7.5-2.395 1.5,5.399 4.8,5.7 3.6,14.7-.3,2.402-4.2,3.297-4.5,6.297-1.8,7.503 17.7.906 19.2,1.8 7.8,3.899 10.2-3.597 15.6-.3 0,10.203 17.4-2.102 19.8-2.997 2.4-4.199 14.4-24 21.9-21.898 9,0 26.4,9 34.2,6.598 1.8-4.5-14.1-11.098-8.1-18 4.2-5.102 11.7,3.297 15-.903 0-5.394-.9-16.195 4.5-16.195 10.2,0 12.3.594 3.6-6.602 0-9 .6-8.699 9.9-8.699 1.5,2.102 6.6,10.199 9.3,5.098 1.5-2.996-.6-7.797 1.8-10.199 1.5-1.203 11.7,5.394 12.3,5.394 15.3,0 30,5.707 45,7.203 3.6-3.297 12-9.601 0-12.597 3,.601-15,5.101-7.2-7.203 8.4-13.5 8.1-.903 15-.903 9.9-10.496 3.9-5.996 9.3-5.996 0,17.399 2.4,8.106 2.4,14.996-1.8,1.207-5.1,2.403-8.1,2.403-3.3,8.105 4.5,6.296 8.1,5.101 2.1-.301 5.4,1.195 5.4,3.899 8.7,4.5 14.1,2.101 22.2,2.101 4.2-9.598-6.6-1.199 11.7-8.098 2.1-5.699-4.8-11.101 6.6-11.101 2.1-5.402 14.1-8.098 18.3-12.297-1.2-3.305-3.3-5.102-6.6-5.102-1.2,0 2.1-11.101 2.1-12.003-4.8,0-13.5,6.003-17.4,6.003-5.4,0-9.9-3-13.5,1.2-1.2,1.496.3,5.996-1.8,5.996-8.1.902-2.4-2.696-5.4,3.906-3,0-17.4,5.094-17.4-4.207 4.8-2.996 14.1.902 14.1-9.895 1.5-.906 3.9-4.5 4.5-6.601-1.2-11.102-5.1-24-5.1-35.3985 1.8,0 3.6-.3047 4.8-.9063 1.2-18.2929 2.1-6.5976 3.6-19.4961 .3-3.5976-8.1-10.8008-10.2-13.7968 0-6.6055-2.4-13.5-1.5-19.8086 2.1-11.9922-7.8-13.1993 6.9-13.1993 4.8,0-1.2-8.3984-3-9.2929-11.4-1.5039-10.5,2.9961-12.3-12.30472 6,0 13.5-2.09765 19.8-1.79687 20.4,6.89839 1.2,7.80469 1.2,12.89839 14.1,15.9024 7.2-7.496 16.5,11.7032 4.5,0 11.7,14.6953 13.8,18.3008 5.7,0 37.5-5.1016 33.9,6.6015-2.4,0-8.7,1.7969-11.4,2.6914 2.7,3.6055 9.6,7.8047 13.2,9 6.3,1.8008 10.5,12.0039 16.8,12.0039h9.3c1.5,6.3008-3,5.6992-4.2,9.3047 0,0-8.7,19.4962-14.4,4.5-5.1,0-9.6-8.1055-15-5.1055 .3,0-11.4-2.6992 6.9,20.4027 3.3,15.894 3.3,12.297 15.3,16.195 8.4,3.004 1.8,10.508 13.8,15.008 5.7,2.691 10.5,1.797 16.8,1.797 15.9-14.703 4.2-4.5 12.6-2.399 0,6.297-3,12.899.6,18.895 3,6.301 17.1,14.406 23.4,18.304 0,12.297 9.6,34.196 21.3,38.403 0,4.793 36.6,29.695 46.2,29.996l35.1,14.101c7.2,0 4.2,11.696 12.6,11.696 2.4-6.598 3-3.899 6-1.797 0,3.305-.9,5.996-2.4,9 6,15.601-2.1,22.805-3.3,36.004-9.3,5.394-4.2,25.797-4.2,35.691 0,30.305 4.8,26.11 33,35.403 28.8-5.098 34.8-48.895 48.9-63.301 5.7-5.696 12.9,1.801 14.4,5.105 8.1-3.898 22.8,5.094 22.2,15.598-.3,4.199-7.2,13.203.6,13.203 .9-3.305.6-6.301 2.1-9.605 8.1-.602 20.1,3.898 14.4,18.605 1.2,7.492 7.5,8.398 9,14.996 0,2.102 0,4.801 2.1,6 3.3-8.398.3-9.894-1.5-18.598-1.2-9.601 6.3-2.699 6.3.594 1.5,2.102 5.4,5.106 6.3,7.805 3.6,2.703 10.2-1.504 12.9,5.699 5.1,0 7.2,7.199 12.3,7.199-5.4-29.703-18.9-11.097-24.9-26.097-13.2-2.399-12.9-12.004-11.7-19.5-.9-5.403-5.1-3.907-8.1-5.403-.9-.902-3.6-24.601 3.3-16.203 .3-5.394-3.3-10.195-1.8-15.601 10.8-11.098 5.1-5.094 15.9-11.098 2.7-8.699 15.6-12.297 23.7-9.293 4.5.594-5.4,10.496-5.7,12.297 3,10.203 8.7,2.398 10.2,12.305-7.2,5.695-6.3,3.593-2.4,12.898 .9,6.297 6.9,8.699 6.3,14.695-.9,9.907-7.5,11.703 6.9,14.106-3.9-1.809 19.8,30.898 18.6,35.992-1.5,3.906-7.8-3.297-7.8.902 0,6 8.4,5.106 15,6.301 3,.602.6,8.399 2.7,10.195 3.3,2.704 8.7-1.796 9.9,2.102 2.7,8.707 13.8,12.605 13.8,19.809-3.6,1.796-8.7,2.097-13.2-1.207-2.7-2.098-2.7,1.5-3.6,6.601 2.1,6.297 9,7.504 10.5,12.297 5.7,0 7.2,4.207 7.2,9.902 1.8,7.203 6.6,8.098 6.6,16.203-6,8.7-11.7,1.196-15.3-5.101-2.1-.902-4.2.601-5.4,1.496 2.4,6.301 1.2,19.801-4.2,20.402-10.5,1.203-11.7,4.5-7.5,13.805-4.8,6.598-13.2-.906-13.2-7.203-1.5-9.305 4.8-10.199 4.8-17.399-5.1-6-.9-16.796-.9-24.902 .9-.305 6.6-16.797 8.7-19.5-.9-2.703-3.3-7.504-5.4-9-5.4-4.801-5.1,6.598-6.3,6.297-6.9,0-7.2-3.898-9-9.293l-13.8-9.602c-5.4,2.704-9.3,3.293-14.4-4.5-5.4-7.203-10.2-9-16.2-2.101-3.3,4.199-12.3.301-16.2-.902-6.6-2.102-11.4,9.3-14.7,7.503-7.8-3.304-.6-6.3-6.3-4.5v17.399c-4.8,2.703-12.3,4.5-14.7-1.5-.6-3-7.5-3.301.3,6 1.8,5.996-.9,4.199-3,10.496-.9,0 4.8,18.004.3,15.602-2.4-6.297-11.7-5.696-16.5-8.7 0-4.5-3.3-14.695-7.8-14.695-4.2,9-5.4,5.395-13.8,5.996-15.3,2.102-1.5,12.297 1.5,16.504 1.5,0 16.8,1.496 20.1,3.297 2.4,14.996.9.902 5.4,11.402 1.5,4.199 1.8,6.899 5.4,9.301 9,5.094 0,13.199-5.1,16.195 0,16.504-35.4,8.106-38.4,3-21-32.093-46.8-49.797-60.9-87-7.5-17.996-3.9-36.597-10.2-53.695-1.5-4.5.6-14.105-3.9-16.809 0,0 1.8,44.102 3.6,54.309 3,15.598 6,30.598 6,43.797 .3,6.902-3,13.199 5.4,13.199 4.2,11.996-9.9,4.199 9,13.199l4.8,19.5c-.3,7.504-1.2,33.301 10.2,36.004 10.2,2.098 23.1,24.895 27.3,24.895 16.2,1.804 30.3,17.105 39.3,27.601 8.4,3.598 14.1,2.403 16.2,10.801 4.2,0 7.5-7.203 12-2.703 3.9,4.5 17.1,20.102 18.9,26.402 3.9,0 11.7-1.8 15.3,0 0,0-.6,11.098-.6,12.899l6,18.301c-3.9,13.199-9,17.097-1.2,32.699l30.9,50.105c4.5,9.293 4.8,12.297.6,22.199-3.3,0-10.2,1.2-12.9,2.102 5.1-.902-21.9,34.496-19.5,28.801 0,1.195-18.3,12.597-22.8,12.597-2.1-5.406-10.2-6.601-13.8-12.597-34.5,15.301-12,3.297-33,3.297-2.7,6.898 10.5,20.699-3.3,22.199-4.2-11.102-10.8-10.5-20.1-7.797-5.4,1.195-6.9-6.602-9.6-9.902-11.7,0-6,8.093-14.7,2.699 0-12.004-10.8,10.801-10.8-12.305-9.3-11.695-21.6,18.004-21.9,18.004-8.1-11.695-2.7-6.301-18-6.301 0,9-13.2,4.5-18.3,3.598-4.5,5.402-8.7,4.801-14.1,8.105 0,5.997 3.3,10.497 3.3,15.602 0,4.195-10.8,15.297-14.7,14.695-27-6.297-6.6,15.301-25.2,16.5-10.2,1.504-8.7-.898-17.7-4.797-9.6,9.598 9.9,12.598-10.5,12.598 0,6 4.5,19.5-8.4,14.399-7.2-2.7-46.5,22.203-49.5,23.402-.3-.902-1.8-3-1.8-3.899-1.5,0-11.1,8.098-11.1,8.997-1.2,5.402-2.1,9.304-7.2,10.8-4.2.903-6.3-3.898-6.3-6.597 6.3-3.602 0-9.301 3.6-13.2 0-6.3 11.1-13.8 8.7-19.199-1.2.297-12.3,7.199-12.3,0 2.7-5.703 9.9-6.605 14.1-7.801 4.2-.601 4.2-16.8 9.9-16.8 1.5-3.903-2.7-9.301-.9-13.5 1.8-2.102 2.4-3 3.9-5.403-13.8,3.301-6-8.699-6-15.902-16.2,0-10.8-7.797-10.8-22.199-6-2.996-14.7,10.504-18.3,10.504-1.5-1.504-3.3-3.907-3.3-6.305-9.6,0 2.4,12.906-12.3,12.906-4.5-5.402-9.9-3.304-15.3-6.308 2.1-6.891 2.7-12.899-8.1-9.895-5.1,1.199-3.9,7.504.6,8.399 3,.3 3-.895 5.4,1.496-3,6.308-4.5,13.504-9.9,18.004-7.8-.598-7.5-.297-9.3-9.293 0,0 0,13.793.3,15.293-5.7,7.8-9,.902-17.4,5.703 0,0 16.8,6.3 6,11.398-3.3,11.102-2.7,25.801-10.5,33-7.5,6.301-8.7-9.301-8.7-9-5.4-2.098-33.3-1.199-27.6-1.199-1.2-1.5-5.4-4.5-6.9-4.5-9.3,21-2.7,9-22.5,18.601-8.7,5.399-32.1,3.899-37.5,10.497-7.2,0-26.1-13.797-30.3-16.2-2.4-1.496-2.7-2.097-2.1-5.398 1.2-6.902-5.4.601-7.2,1.199-6,.602-9.6-7.199-15-3-2.7,2.102-6.3,6.602-10.5,2.402 .9.899-24.3-2.402-12.9-9 0-3.601-6.6-2.402-4.5-8.699 2.1-7.801 10.5-23.703 16.2-30.301 5.4-5.402 8.4-3.304 9.6-9.601 1.8-12.297-2.7-1.195-2.7-9.906 8.4-5.395 1.5-16.493 13.2-10.496 4.8,2.703 4.5-7.497 6.9-10.196 7.8-12.902 24.9-11.703 11.4-27.304 0-15-6.9-19.5-6.9-35.098 0-12.899 19.5-11.703 24.3-23.098 2.7,0 7.5-.902 10.2.594 26.1-29.395 35.4-47.996 55.5-59.992 1.2-7.203 3.6-9.906-3.9-13.801 0-18.004-14.7-42.004-14.7-57-6.9-4.801-14.1-14.105-17.1-18.305s2.7-7.5 4.8-12.593c19.5-3.004 31.2-41.407 41.1-56.407 1.2-7.496-3-28.8 6-18.004 1.8-7.793 9-26.097 6.3-33.894-1.8-.902-6.9,5.098-9.6,3.297-2.7-3.297 8.1-22.793-3.3-22.793-4.5,5.394-18.3,6.89-22.8,6.597-1.8,4.2-54,44.395-59.7,48.602-3.9,25.195-4.5,10.195-7.5,26.098-7.2,3.898-10.8,15.3-16.8,22.504 0,6.597-5.1,28.195-10.2,34.195-12.6-.902-32.7,5.402-43.5-12.297-3.6,0-19.5,1.797-21.3-3.004-6.3,0-12.9,6.301-18.9,6.301 3.3-.301-39,6.898-41.1,5.703-6.6-5.703-13.5,6.301-14.7,14.398-23.1,3.293-25.5,5.696-45.6,5.696-1.5,7.804-11.4-2.696-15.6,6.601-43.497,25.203-22.8-14.699-51.001-14.699-6.899,1.496-3.301,21.297-9.899,21.297 0,0-24.3,39.004-28.199,43.809-13.5-7.805-9.301,10.496-16.199-12.907-2.699,1.504-7.801,9.301-7.801,13.2-12.301,6.003-14.101,8.699-14.402,23.101l-.598,28.5c0,5.102-9,12.297-9,15.301 6.899,4.199 6.301,1.797 9,9 14.699,51.601 18.598,32.398 12,48.601 4.801,12.594 6,3.895 6,19.196 2.102.902 15.598,8.398 10.199,11.703 2.7,8.398 12.297,1.797-2.101,9.601 6.301,1.2 25.801,9.297 28.203,12.598-.301,14.106-3.902,16.797-17.102,16.797-8.101,10.203-12,4.801-17.097,11.406 4.797,5.696 13.496,2.699 17.097-1.801 6.301,0 14.399.598 19.801,1.801 3.301,8.996 4.496,14.098 8.399,21.598 6.3,0 11.699-14.399 16.5,2.699 0,.902 18,18 18,28.199-6.3,4.5 1.5,21.903 4.8,25.5-31.8,3-25.199-1.8-40.8-1.8-1.801,5.703-15.899,7.8-21.899,15 35.699,6.601 10.797-1.797 30-1.797l1.199-5.7c19.8,0 11.403-5.101 22.2,2.997 2.7,7.503 4.5,14.402 4.5,22.503 5.4,6.598 6,12.598 0,19.797-9.3,0 16.2,33.602 14.1,5.7 8.1-3.899 6.9-1.801 9.6,4.804 1.5-.902 4.5-5.402 6.9-5.402 3.3,9-7.8,11.098-13.2,15-2.4,5.699 20.1,14.398 20.1,1.801-6.3-6.602 5.4-4.801 8.7-8.7 2.4,2.997 6.3,8.7 6.3,12.598-.6,6.301 6.3,10.199 9.9,15-2.4,4.801-.3,7.203 3.3,11.102 0,5.095-3.3,13.195-3.3,19.805-7.5,0-10.5,5.09-10.5,12.59-1.8-1.2-4.2-4.79-5.7-6.9 .9,0-16.5,27.6-16.5,27.6 0,5.71 3,7.5 7.8,12.3 4.5,6 .3,8.1-6.9,3.6-3.6,2.4.9,9.6.9,13.2-10.2,0-4.8,0-9.6,5.7-13.8-6.9-14.7,13.8-24.9,10.5 0,0-14.098-15-14.098-9.6-4.805-.9-7.801,3-12.602,0-8.398,14.1-8.101-.9-4.8-5.4-.602-3 3.3-7.8 4.8-9.9v-12c10.2-4.8 12.602-6.3 12.602-11.1-7.5-7.5-8.102-3.9-1.5-11.7 0-18 2.996-10.5 2.996-20.7-12.297,0-5.695-16.796-1.496-20.698 0-11.7-10.801-9.297-10.801-18.899-6.902,0-33.301,32.097-25.203,42.597-2.699,13.8-8.699,17.1-15.598,25.2-15,4.5 3,10.5-14.101,10.5 0-36 9.601,3-.598-43.5 2.399-6.9-8.699,30.6-11.101,24.61-20.7,4.79-7.801,3.29-22.2,10.19 8.102,10.81 7.801,14.1-3.601,13.5 0-3.3-15.598-9.3-3.297,8.4-2.402,6-2.703,5.41-7.801,8.7 0,8.4 7.801,3.6 11.098,3.6-.297,2.11-23.399,27-26.699,28.2-7.797,5.1-17.399,6-20.399,19.2-3,0-8.398,2.71-10.801,5.4 0,15.31-10.5-5.4-11.699-7.5 3.598-4.19 8.399-13.5-3.301-9.9-3.3-3.9-1.199-7.2-6.898-7.2 0-11.1 1.5-20.09 1.5-30-5.402-7.8 5.098-21.9 8.699-27.3 9.297,0 27.899-8.99 36.899-11.4 9.601,0 8.402,1.2 8.402-4.8-2.703-1.8-15.004-1.8-15.004-1.8 0-2.1-.598-14.1 7.203-18.9 3.598,4.5-.301,7.8 5.399,5.7 .902-6 0-7.8 3.898-12.3-8.398-12.896-12.598-20.396-21-33.298-1.5,2.101-1.5,6.902-4.797,6.902-5.703-14.699-6.301-27.902 9.297-36 0-16.199-8.996-2.102-10.797,1.801-5.398-3.602-6.902-1.203-11.699,2.996 0,5.402 1.496,7.203-5.703,10.504 0,5.699 3.601,13.5 7.801,19.5 0,2.097-3.598,6-5.399,7.8-2.699-3.3-.601-2.101-.601-6.601-2.7,0-14.098,10.199-14.098,13.199l17.098-.898c7.8,8.395-1.5,3.898 11.101,11.395-2.703,2.1-8.101,8.1-4.801,12.3-11.699,2.7-9.3,10.5-15.597,17.7 0-5.7-4.805-5.7-6.301-.9-3.902,2.4-15.301,16.2-17.402,16.2-.598-1.2-12.602-13.5-1.2-13.5-5.699-6-12-5.4-3.3-13.8-3.899-5.09-12.598-5.7-13.801-14.4 4.504-10.195 1.203-1.5 1.203-7.5 19.199.9 8.098.31 15.898-8.695 6,0 10.2,1.2 13.2-6.3-3.301-3.903-10.5-1.5-12.598-1.203 3.898-5.399 8.398-18 14.996-18.598 0-2.102-14.996-3-14.996,3.601-2.402-5.703-3-8.402-7.203-14.101-13.797,0-5.699,2.098-13.797-7.5-15.301,0-29.402,17.398-43.801,19.801-17.101,0-11.703-3.903-18,9.297 3.301,7.8 1.199.902-4.801,8.703-1.8-3.903 2.7-6.602-.902-10.5-3.297,0-8.398.898-10.797,7.5-3.601,19.805-13.199,18.595-25.203,6.597-21,0-2.699,2.703-37.199-9.597 7.5-9.301 13.5-1.5 21-11.102 9,5.399-3.297,7.5 11.703,7.5 0,5.402 6.297,5.699 10.199,10.5 4.5,0 8.699-.898 11.399-4.801-.899-3.597-12.602-5.699-14.7-4.8-1.5-4.2-12.902-16.797-18-16.797-.3-1.801-4.199-23.102-.601-25.5-.899-3 6.902-8.7 6.902-13.2-9-7.203-10.5-3.003-13.203-9.601-5.398,6-7.797,18.898-2.398,26.398-15.899,0-28.2,18.004-39,25.5 2.402-12-21-11.699-26.098-9.297-20.703,0-19.801,6-41.102,4.5-1.199,4.5-4.8,10.5-8.699,12.598 4.5,2.102 18.899,12.301 27.297,2.399 2.703,9.601-1.797,12.601-3.297,21.902-10.199,3.598-15.601,6.606-21.601,16.796-6.301,0-7.801.6-7.801-6.3-11.399,0-28.797,17.7-36.899,25.5-12.3,5.1-9.898,4.2-18,12.61 0,16.19-10.5,17.39-22.8,15.59-2.7,3.6-14.7,11.7-14.7-3.9-3.3-3.9-6.3-5.1-11.101-10.5-7.5,9.6-11.098,10.5.902,17.4-4.203,10.2 4.199,8.1 4.199,18.6-7.8,4.8-15.898-4.19-15.898-15-3.301-3.3-10.5-15.6-15.602-.9-4.199,15.9-6,27.6-15.601,42.3-8.399,0-17.399-22.8-21.301-27l-5.996,6.3c-9.902-11.39-4.801-8.7-30.602-9.3-3.3,7.2-14.101.6-18.898-1.2-1.203,0-12.301-17.7-12.301-17.7-24.902,0 9,27.6 6,25.5 13.199,0 25.199,5.7 37.801,7.5 5.398-.9 11.098-3.9 15.598.9 0,16.8-20.7,7.21-22.801,5.7-24.598,6.3-16.801-.29-34.5-9.6-11.098,7.2-15.598,2.7-23.399-6.3 0-9-3.601-6.6-8.699-1.2l-1.5,9.6c-1.5-4.8.899-12.3-1.5-18-3.601,0-10.5,9.6-16.5,9.6-10.5,11.7-15.301,16.8-15.301,33-6.3,8.1-9-2.39-7.8,11.4-1.801,2.1-24,20.71-27,21zm303.902-434.697c-12.301-23.996-12.301-23.996-15.902-18.601-11.399,2.699-30.301-6-32.7,5.402-4.199,19.5-11.101,13.5-8.699,12.598-.601-11.704 6.602-18.895 18-24.602 11.399-4.793 10.5,7.203 18.899-12.297v-1.797c5.402-3.004 9.3-5.707 15.601-5.707 5.699,6.301 7.5,8.11 15.301,7.203 18-2.398 22.199-8.699 18.898,1.203 .899,5.7 5.399,10.801 8.102,15.895 21.898,0 24.898-11.695 29.699,18.004l15,16.203c10.801,0 18.899-.906 20.098,9.301 9.601,1.797 5.703-.903 5.703,5.695-7.203,1.801-12-1.797-18.004-1.797 19.801,11.098 11.703,6.297 25.805-1.801 3.597.594 7.797,4.5 10.797,6.301 0,10.496-18.301,6.903-21,6.903 0,9.593-14.399.589-16.5-2.102l-21.301-12.305c0-3.297-10.801-12.297-10.801-17.699-20.098,0-21.297-18.598-25.199,14.996-3.899,7.805-10.797,5.106-10.797,14.406l-.902.602c-3,2.102-10.801,1.195-14.7,1.195-4.5,5.102-3.898,9-3.898,13.805-12.902,0-8.402,1.797-8.402-10.207 4.8-6.598 12.902-9.594 18.3-17.098-2.101-29.996 2.7-5.394 8.098-25.496l-19.496,1.797"/>
   <path d="m1328.62,163.5c0-4.199 3.9-6.297 7.2-6.297 0,3.301 2.1,6.297 4.8,6.297 0,3.305-9.9.301-12,0zm-67.5,51.305c-2.7-.899-10.5,2.398-10.5-2.703 0-2.403.3-5.696 2.1-6.602 3.6-.594 17.7,9.906 8.4,9.305zm81-48.602c0-4.5-1.5-4.801 5.1-5.101 3.9,5.101-4.5,5.101-5.1,5.101zm6,0c1.5-3.898 3-5.101 6.6-5.101 1.2,3.3-3,9.3-6.6,5.101zm18-.894c-2.4,1.796-1.8,5.996-4.2,7.191-10.2,6.301-4.5-10.797-3.9-12.297 2.7,0 9,2.402 8.1,5.106zm48.6-159.90666c-10.2-2.09765-3.9-5.40234 2.1-5.40234 .6,3.30469.9,3.60547-2.1,5.40234zm-588.599,396.29666c-2.402,1.508-6.601,3.606-8.402-.894 0,.593 5.101-19.801 6-21.899 3.902,0 12.601,11.403 12.601,14.696-4.5,2.703-10.199-2.399-10.199,8.097zm0-25.496c3.297,1.195 0-16.203 0-17.398 3.899,0 10.5-1.797 14.098,0 0,2.703-7.5,17.097-9,17.398-1.5.606-3.899.606-5.098,0zm39-79.5c-1.801,5.106-5.703,7.797-11.402,6.602-.297-1.496 1.5-17.098 2.101-17.098 .899,0 9.301,9.293 9.301,1.496-3.902-10.195 7.199-11.101 3.899-19.199 .902-5.703 7.5-6.899 11.402-17.399 2.398-4.8 2.398-10.796 5.699-14.703 11.399,11.703 19.199,13.2 9.301,29.403 4.797-8.7-7.801,13.8-7.801,6.597-2.699,0-5.402,0-8.101,1.2 0,15.003-2.098,11.097-6,25.503-.899,2.704-.598,5.696-.598,8.399-5.402,6.898-7.801-10.199-7.801-10.801zm-817.4999,166.797c0,1.809 8.3984-13.793.8984-17.398-1.8007-5.094.6016-15.301 5.1016-18.594 9-6.602 15-27.305 15-38.406 3-1.797 3.8984,17.402 3.2969,18.898-.5977,0-9.2969,20.402-5.6992,21.605 2.4023,7.497.6015,16.196-5.6993,17.098-4.8007.602-3,4.199-1.5,8.098 7.8008,0 5.1016.301 7.5,6.301 9.6016,0 10.8008,13.5 15.6016,18.902-9,4.199-3.6016-6.899-14.4023-6.899-1.1993,2.098-3,7.5.9023,7.5 6.5977-6.597-19.5,17.997-17.3984,17.997-.9024-2.102 0-3.899.2968-5.7-.8984-2.699-4.5-3.593-5.3984-7.203-1.5-4.801 0-18 1.5-22.199zm74.9999-42.594c-1.203-5.703-.902-.902 1.199-8.406-.601-3.598-2.699-1.496-3.601-4.5l6.902-8.992c6.301-3.305 5.098.293 6.598-7.805 6,0 2.101,18.602 2.101,19.496-5.699,0 1.2,10.207-13.199,10.207zm-2.402-20.402c-6.598,0 2.101-5.703 2.101-5.703v-4.492c9.301-4.207-2.699,9.894-2.101,10.195zm22.199-134.098c-2.098-3.304-1.496-12.004 5.703-6.902 0,3.297-4.199,6.601-5.703,6.902zm1045.502-28.5c.6-.601-.6-2.703-2.1-3.304-1.8-1.196-3.3-1.497-3.9-.895-.3.895.6,2.395 2.1,3.598 1.8.601 3.3,1.195 3.9.601"/>
  </g>
 </g>
</svg>
