<?xml version="1.0" encoding="UTF-8"?>
<!DOCTYPE svg  PUBLIC '-//W3C//DTD SVG 1.1//EN'  'http://www.w3.org/Graphics/SVG/1.1/DTD/svg11.dtd'>
<svg enable-background="new 0 0 1474 1125.3" version="1.1" viewBox="0 0 1474 1125.3" xml:space="preserve" xmlns="http://www.w3.org/2000/svg">
<polygon fill="#808080" points="1348.1 595.2 1346.7 585.9 1343.2 585 1345.4 583.7 1343.2 578.4 1341.9 580.6 1336.6 577.5 1335.7 570.4 1342.8 570.4 1345.4 573.9 1356.5 565.1 1358.2 563.3 1364.4 554.1 1359.6 546.5 1358.7 541.2 1364 540.8 1364 536.8 1365.3 536.8 1367.5 540.8 1371.1 536.4 1371.1 541.7 1367.1 542.1 1371.5 553.6 1388.7 552.3 1393.6 555.4 1393.6 564.2 1398.5 569.5 1402.4 570.4 1401.5 569.5 1404.6 568.6 1403.8 570 1409.1 572.6 1410.4 577 1413 575.7 1413.9 578.4 1416.1 573.1 1415.7 578.8 1419.2 580.1 1420.1 576.6 1418.3 575.7 1425 576.6 1419.7 571.7 1421.9 570 1418.3 569.5 1427.2 563.8 1422.3 559.8 1426.3 559.8 1429 554.5 1435.6 554.9 1433.4 551 1433.4 547.4 1440 552.3 1440.4 545.7 1448.4 541.7 1440.4 539.5 1441.3 537.3 1430.3 523.6 1417.5 522.7 1416.1 526.2 1415.2 523.6 1417 521.3 1412.6 519.1 1411.7 521.8 1406 520.9 1409.5 522.7 1409.1 530.2 1412.6 532.4 1410.4 536.8 1410.8 532.8 1404.2 527.5 1401.5 513.8 1402.9 512.9 1398 506.3 1393.6 505.4 1398 512.5 1388.7 506.3 1391.8 503.2 1383.9 501 1385.2 499.2 1384.8 497 1380.8 494.4 1375 493.5 1373.7 489.1 1368.8 487.3 1367.5 482 1360.9 478.9 1357.8 477.6 1344.1 465.7 1324.2 454.6 1299 455 1278.2 449.3 1274.7 450.6 1274.7 457.7 1271.6 460.8 1276 461.7 1280 473.2 1269.8 481.6 1256.1 470.5 1254.8 461.7 1251.7 456.8 1243.3 463.9 1227.4 461.7 1219 456.4 1204.9 458.1 1194.7 466.1 1194.7 462.1 1181 455.5 1184.1 444.9 1183.6 440 1173.9 426.3 1137.7 425.4 1119.1 430.3 1112.5 425.9 1117.3 420.1 1110.7 413.1 1103.2 413.9 1098.8 408.2 1088.2 406.4 1092.2 400.2 1097 401.6 1094.8 393.2 1092.2 391 1019.2 373.3 1017 375.9 1019.7 381.2 1007.3 396.3 1008.6 401.6 1006.8 404.7 1009.5 412.6 1004.6 410.8 991.8 421 971 407.8 966.2 408.2 964.4 415.7 954.3 413.5 946.3 398 940.5 410.4 940.1 420.1 933.9 432.9 930.8 426.8 922 423.7 914.5 406.9 912.3 407.8 911.4 400.2 918.4 392.7 917.6 391.8 918.9 386.5 915.8 380.4 918 368.9 906.5 354.7 896.3 352.1 893.3 356 869 342.8 868.1 347.2 864.5 345.9 862.8 355.2 865.4 364.4 863.2 367.1 844.6 370.6 822.5 363.6 821.7 355.6 825.6 353.8 797.3 347.2 778.8 353.4 785.4 359.1 777.9 362.2 775.2 361.8 778.8 359.1 776.1 358.3 777 349.4 772.2 337.5 772.6 344.6 769.5 347.6 759.3 344.1 758.5 339.7 760.2 337.5 754.9 341.5 748.3 337.5 743.4 344.1 745.2 350.3 752.7 344.6 755.8 348.5 745.2 355.6 739.9 352.1 742.5 356 740.8 357.8 726.6 364.4 716.5 363.6 716 365.3 716 369.7 719.6 372.8 713.4 369.7 708.5 372.8 723.1 350.3 731.9 350.7 751.8 322 763.8 316.7 763.8 312.3 769.1 311 767.3 309.2 775.2 304.3 780.6 295.5 779.2 289.7 780.6 287.5 773.5 285.3 769.5 276.9 777.9 285.3 781.4 277.8 781 273.4 778.8 273.4 775.2 262.3 772.6 267.6 769.9 262.8 771.7 259.2 757.1 244.2 731.9 242.9 724.9 253.9 714.3 253.9 723.1 242.9 724.9 237.1 724 234.1 710.3 232.3 710.7 227.9 698.3 235.4 713.4 220.3 710.7 212 696.6 205.3 686.8 208.9 672.3 230.1 668.3 240.2 672.7 246.9 670.5 246 670.5 250.4 650.6 253.5 659 261.9 657.7 269.9 654.1 266.3 648.8 261 640 267.6 641.3 271.6 630.3 275.6 631.2 271.6 628.9 270.7 623.2 275.6 626.3 267.2 623.6 265.4 598.4 269 598.4 272.5 603.8 272.1 602.9 276 566.6 288.9 556 301.7 546.7 301.7 553.4 304.8 548.5 307 545.4 316.7 537.9 311 536.1 316.3 544.1 320.2 537.5 326.4 544.5 330 546.7 336.2 544.1 337 544.5 341.5 495.5 350.3 491.5 352.1 493.7 354.7 489.3 359.1 491.5 360.5 489.3 363.6 495.5 371.5 493.7 377.3 495 384.8 507 391 507.4 393.2 506.5 395.8 517.1 402 518.4 408.6 515.4 418.4 518.9 434.3 518.9 441.8 514 444 514.5 449.3 506.5 444 507.4 432.5 506.5 420.1 513.1 414.8 515.4 406.9 499.9 405.1 493.7 396.3 480.4 387.4 464.5 392.7 464.1 395.8 469.8 398 462.3 405.1 458.8 406 455.2 398.9 451.7 400.7 454.4 409.5 465 417.5 468.5 414.8 472.9 426.3 446.4 415.7 444.6 413.5 447.3 412.6 447.3 408.2 444.6 397.6 448.2 390.1 446.8 383 448.2 382.1 443.3 372.8 440.7 373.7 442.9 390.1 428.7 402 425.6 410.4 436.7 433.4 430.5 454.6 433.6 464.3 432.3 471 443.7 474.5 452.1 470.5 465.8 479.4 470.3 493.1 465.4 496.6 465 505 476.5 509.4 466.7 510.3 462.3 505.9 464.1 495.3 462.3 493.1 463.2 488.2 458.3 482.9 456.6 476.7 438.9 482 436.7 490.4 440.7 499.7 440.2 506.8 433.6 514.7 429.6 525.3 419.9 531.5 419 538.6 417.2 539 400.4 536.4 399.5 528.9 397.8 527.1 403.5 528.4 416.3 523.1 411.5 518.3 418.1 519.1 422.5 509.4 426.1 506.3 426.1 496.6 429.2 490 429.2 485.5 420.8 475.4 422.5 455 420.3 444 423 440.5 423.4 428.5 421.6 419.7 414.6 411.3 422.5 391.4 421.6 376.8 393.8 370.6 389.8 380.4 385.4 403.3 371.7 417.5 370.4 423.7 373.9 423.7 369.5 430.3 377 432.9 374.8 443.6 376.1 448.9 372.6 450.2 372.1 460.8 383.2 463.4 382.8 466.5 386.3 475.8 391.6 479.4 384.5 494.8 373.9 480.2 348.3 462.6 322.6 455 315.1 460.8 320.9 472.7 319.5 478.5 311.1 483.3 312 488.6 308.5 492.2 305 489.1 307.6 482.9 302.3 475.4 289 487.3 272.7 486.4 266.1 496.2 259.9 492.2 259 486 260.8 481.1 257.7 479.8 264.3 476.7 254.6 478.9 253.2 481.6 253.7 484.7 251.9 485.5 249.3 482 246.2 486 247.9 487.3 246.2 491.7 243.5 487.8 239.6 488.6 208.2 509.4 205.1 518.3 205.1 522.7 195.8 530.2 194.9 525.3 190 525.8 181.6 512.5 184.7 506.3 195.8 503.7 193.6 495.3 188.3 488.6 166.6 483.8 174.1 492.2 173.7 505.4 171.5 515.2 177.7 523.1 173.7 537.7 174.1 546.5 171 541.2 167.9 543 169.3 538.6 158.2 532.8 150.7 543 137 552.3 137.4 558.5 145.8 576.2 125.1 569.5 122 573.1 121.1 570 123.7 568.6 111.4 561.6 107.8 567.3 109.2 571.3 114.9 578.4 119.8 576.6 122.9 587.6 116.7 589.9 105.2 585 99.9 578.4 91.5 576.6 93.7 573.1 93.2 567.8 88.8 558.5 91.9 556.3 92.8 546.5 68.1 520.9 72 519.1 81.3 528 89.3 528.4 89.7 532.4 128.2 542.1 138.3 537.7 148.5 527.1 150.3 519.1 147.6 517.4 146.7 508.1 137.4 497.5 124.6 493.1 102.1 471.4 80.4 470.5 78.7 466.1 76 468.3 76.4 465.7 68.1 462.1 69.4 457.7 76 461.7 77.8 457.7 67.2 452.8 67.6 456.8 66.3 456.4 65 459.9 58.3 456.8 58.3 461.7 53 459.9 51.7 465.2 42.9 474.1 38.4 478.5 39.8 479.4 38.4 490 45.5 496.6 51.3 508.5 44.2 523.1 52.1 547.9 49 558.5 49 567.8 51.7 568.2 52.1 574.4 56.1 579.2 53.5 590.3 57.9 596.5 63.2 603.1 63.2 609.7 49.9 629.6 30 648.2 38.4 646.4 38.4 651.3 36.7 649.5 38 653.5 49 656.2 53 660.1 42.9 659.7 35.8 665 36.2 669.9 32.7 675.6 25.6 677.8 27.8 686.7 29.2 687.1 30 690.6 31.8 692.4 32.2 695.1 29.2 698.6 29.6 699.9 32.7 703.9 31.8 710.1 34 711.4 36.2 715.8 36.7 722.5 37.1 723.3 45.5 724.7 47.3 726 46.8 729.1 53.9 726.9 60.1 730.9 59.7 734.8 61 737.5 59.7 742.8 64.5 751.6 67.6 754.3 68.1 757.8 72 757.4 74.2 758.3 74.7 760.5 76 760.9 76 763.1 71.1 767.1 65.4 765.3 63.2 767.5 65 770.2 67.6 781.7 69.8 783 73.4 779 84.9 778.6 90.2 785.7 90.2 787 87.9 787.9 89.3 792.7 93.7 794.5 96.3 794.1 98.5 797.2 99 802.9 100.8 805.1 105.6 805.1 107.4 806.9 109.6 806.9 115.8 804.7 121.5 811.3 124.6 810.4 128.6 813.1 131.3 812.6 140.1 816.6 139.2 817.5 140.5 821 139.2 823.2 136.6 824.1 139.7 826.3 136.6 828.1 137 833 138.3 833.4 136.6 840 131.7 840 129.5 838.7 126.8 841.8 124.6 842.7 123.3 844.9 123.7 849.7 130.8 848 132.6 850.2 124.6 852.8 125.1 854.6 119.3 855.1 118.4 856.8 125.1 862.1 120.2 863.5 115.8 871 110.9 871 109.2 873.2 115.3 879.8 117.6 879.4 127.3 885.6 136.6 893.9 144.1 893.1 153.8 896.6 164 897 173.3 904.1 179.4 901.9 183.9 902.8 188.3 905 188.3 908.5 194.5 912.1 200.7 916 202 919.6 207.3 920 211.7 913.8 210.4 912.5 203.7 899.3 204.2 889.5 203.3 892.6 200.2 886 195.8 881.1 201.5 872.3 202.4 866.5 203.7 867.4 204.6 861.7 203.3 859.5 206.4 859.9 209 865.7 213 860.4 217 859 213 856.4 211.7 855.9 212.1 853.7 217 853.7 213.5 844.9 210.4 840.9 203.3 840 203.3 841.4 201.5 839.6 200.2 833.8 195.8 832.1 197.6 825.4 200.7 822.8 198.4 820.1 199.8 812.6 202.9 810.4 204.2 804.2 212.1 814.4 216.1 811.3 213.5 802.9 215.7 802.5 220.1 799.8 221 796.3 228.1 793.6 231.6 788.8 236.9 787.9 237.8 790.5 240 790.1 240.9 791 242.6 787.4 245.3 787 246.6 787 248.4 790.5 256.8 790.5 264.7 799.8 265.6 803.8 266.9 803.3 266.9 797.6 268.3 797.2 270.9 801.1 275.8 803.3 282 798 284.6 798.5 284.6 797.2 288.2 796.7 291.3 799.4 294.4 796.7 297.9 796.3 300.1 796.7 302.8 802.5 308.1 802.5 307.6 802.5 308.5 804.2 311.1 804.2 313.8 799.8 318.2 802.5 325.3 800.7 327.9 793.2 321.8 791.4 320.4 789.2 316.5 788.3 316 786.1 313.4 785.2 313.4 784.3 321.3 779.9 322.2 777.3 319.1 773.3 322.6 769.7 330.6 769.7 332.4 768.4 329.3 765.8 324 765.3 323.5 762.7 326.6 761.4 325.7 760.5 322.2 760.9 323.5 757.4 321.8 755.6 326.2 754.3 327.1 755.6 334.6 755.2 335.5 756.5 336.8 754.3 340.8 754.3 345.2 751.2 348.7 752.5 349.2 751.2 352.7 749.9 357.6 749.9 358.9 746.3 365.5 745 365.5 745 384.5 740.6 385.4 737 387.6 736.6 391.6 733.9 397.3 734.8 401.8 737.5 406.2 735.7 408.4 737 409.3 743.2 411.5 745 411 748.5 409.3 750.7 410.6 753 418.1 752.1 418.6 749.4 419.9 749.9 421.6 753 421.2 755.6 423.4 755.6 422.5 753.8 423.4 753.4 429.2 756 432.3 754.3 432.7 756.9 430.5 757.8 429.2 760.5 430 762.7 434.5 760.5 439.3 761.8 439.3 759.6 445.1 757.4 449.1 752.5 452.6 752.1 459.2 749 460.1 751.2 457 753 457 755.2 469.4 765.8 488.4 800.7 490.6 798.9 492.8 794.5 494.1 794.1 498.1 796.7 497.7 798 499.9 801.6 510.5 801.6 511.8 799.4 514 799.4 515.8 797.6 518 798.5 524.2 802.9 525.1 808.2 529.5 810 529.9 812.2 533 816.2 541.9 818.4 543.2 816.2 545.4 815.3 550.3 822.8 547.2 826.8 551.2 828.1 554.2 825.9 558.7 819.7 579.4 807.3 589.6 803.8 610.8 806 616.1 811.7 641.8 811.7 643.5 810.9 642.6 805.5 644.4 802.5 642.2 792.3 654.1 782.1 677.6 791.4 679.8 802 686.4 806.9 692.2 808.6 704.5 802.9 709.8 804.2 730.2 814.4 736.8 819.7 748.3 821.9 755.8 823.2 773.9 817.9 787.6 809.1 797.3 813.5 803.5 812.6 816.4 817.9 828.3 810.9 829.2 806 834.5 791 841.5 784.8 841.1 778.1 834.9 778.1 835.8 775.5 842.9 767.5 866.7 764 873.8 768.9 884.4 771.1 891 780.4 892.4 788.3 897.7 800.2 900.8 817 915.4 819.7 927.3 826.3 929.5 832.5 929.5 837.8 932.2 842.2 940.5 842.7 964.4 832.5 963.1 835.2 964 844 960 848 955.6 863 949.8 874.9 947.6 876.7 938.8 873.6 931.3 880.7 933.5 886.9 933.5 896.6 927.7 903.2 927.7 905.9 928.6 908.1 929.5 907.7 929.1 905.4 933.5 905.4 938.8 895.7 940.5 899.7 943.2 897.5 943.2 902.8 951.2 904.6 957.8 902.8 966.6 895.7 993.1 862.1 997.6 852.4 1004.6 841.4 1012.6 832.5 1015.7 811.7 1013.9 802.5 1017 792.7 1022.3 782.1 1019.7 779 1020.6 775.9 1019.7 771.5 1021.9 766.2 1013 759.6 1008.2 751.6 998.5 751.2 998.5 758.7 995.4 762.7 995.8 758.7 993.6 760.5 986.1 762.2 989.2 757.8 986.5 754.3 989.2 751.2 985.2 753 985.2 756.9 981.7 759.6 981.7 746.8 972.8 747.2 968.4 744.6 968.8 741.9 989.6 722.9 1002.9 705.2 1013 696.8 1017 688.9 1029.4 675.6 1037.3 671.2 1057.7 669.9 1062.5 674.3 1066.1 669.4 1075.4 673 1082.4 670.3 1084.6 673.4 1086.9 673 1086 669.9 1089.1 669 1088.6 665.4 1090.4 664.6 1104.5 669.4 1109 667.2 1115.6 672.1 1106.7 675.6 1109 679.1 1119.1 676.5 1121.8 678.3 1128.4 673.4 1139.4 674.7 1141.7 673.8 1141.2 671.2 1133.3 669 1134.6 666.8 1133.3 662.8 1135 662.8 1139 654.4 1148.7 646.4 1159.8 629.6 1175.2 625.2 1182.8 629.6 1187.6 624.8 1185.9 631.8 1183.2 636.3 1184.1 639.4 1182.8 642.5 1187.6 642 1185.4 649.5 1204.9 630.5 1208.4 629.2 1210.6 632.3 1212.4 629.6 1210.2 627.4 1210.6 621.2 1215 613.7 1222.5 611.1 1227.4 614.2 1227 615.9 1220.3 619.9 1219 629.6 1217.2 632.3 1217.2 637.6 1215 640.2 1216.4 643.8 1200.9 651.7 1199.6 656.2 1188.1 667.6 1169.9 692 1161.5 696.8 1156.7 696.4 1158.4 701.2 1156.2 708.3 1148.3 714.5 1145.6 733.9 1146.1 746.3 1156.2 799.8 1168.6 786.5 1171.7 771.1 1181.4 767.1 1183.6 768.4 1183.2 755.6 1192 747.2 1197.3 748.5 1201.8 745 1198.2 733.1 1200.4 726.4 1204.9 722.5 1203.5 719.8 1209.3 717.2 1207.1 722 1209.7 726 1212.4 721.6 1211.9 715.8 1208 714.1 1207.5 707 1211.9 696.8 1207.1 694.2 1203.1 697.7 1201.3 695.1 1201.8 689.7 1209.3 675.6 1211.5 675.6 1214.6 662.3 1218.6 660.1 1220.3 662.3 1223.4 658.8 1227.4 662.8 1229.6 656.2 1237.1 650.9 1238.5 652.2 1238 662.8 1244.6 652.2 1254.8 648.2 1265.4 650.9 1273.8 660.6 1275.6 651.7 1289.3 643.3 1288.8 640.2 1291.9 641.1 1291.5 638.5 1298.6 634.5 1301.2 628.8 1304.8 630.1 1314.5 624.3 1315.4 620.8 1333.5 613.7 1331.7 607.1 1335.7 612.8 1337.5 611.1 1349.4 617.3 1353.8 609.7 1349.4 604 1352.9 603.6"/>
</svg>
